<svg width="165" height="164" viewBox="0 0 165 164" fill="none" xmlns="http://www.w3.org/2000/svg">
<g clip-path="url(#clip0_1_289)">
<path d="M108.201 111.923C104.999 115.217 102.135 117.154 99.9414 118.616C78.5508 132.874 54.0988 128.764 46.5391 127.359C34.342 125.093 24.0464 123.495 15.2002 115.517C-4.90095 97.3881 -3.92327 59.5705 11.4361 36.1441C13.2576 33.3664 28.5935 10.6731 53.0985 7.47534C53.6977 7.39721 54.145 7.35239 54.5368 7.3114C58.3278 6.91093 81.8187 4.79632 100.973 20.8158C103.715 23.1089 108.128 27.245 112.22 33.5534C127.181 56.6199 127.228 92.3447 108.201 111.923Z" fill="#CCE9FF"/>
<path d="M117.882 26.0908L52.5696 20.4843C51.0525 20.4228 49.8199 21.6556 49.8199 23.2385V150.299C49.8199 151.882 51.0525 153.084 52.5696 152.984L118.557 148.641C119.915 148.552 121.013 147.27 121.013 145.777V25.9651C121.013 24.4729 119.239 26.1465 117.882 26.0914V26.0908Z" fill="url(#paint0_linear_1_289)"/>
<path d="M102.848 22.8885C102.848 22.0052 103.529 21.2941 104.358 21.3108L104.925 21.2809L107.638 22.3656V23.3573L102.848 22.8885Z" fill="url(#paint1_linear_1_289)"/>
<path d="M120.318 23.1629L54.3302 20.4845C52.8131 20.4231 51.5806 21.6559 51.5806 23.2387V150.299C51.5806 151.882 52.8131 153.084 54.3302 152.984L120.318 148.641C121.675 148.552 122.773 147.27 122.773 145.778V25.9654C122.773 24.4732 121.675 23.2186 120.318 23.1635V23.1629Z" fill="#EEDFD1"/>
<g style="mix-blend-mode:multiply" opacity="0.3">
<path d="M93.3293 116.542C92.2079 102.065 100.615 96.0772 97.4105 82.9673C93.4473 66.7531 78.1795 66.0397 72.9712 50.1056C70.9747 43.9969 70.1854 34.7667 75.9001 21.3595L54.3301 20.4837C52.813 20.4223 51.5804 21.6551 51.5804 23.2379V150.299C51.5804 151.882 52.813 153.084 54.3301 152.984L113.203 149.11C98.2782 136.953 94.0183 125.438 93.3293 116.541V116.542Z" fill="#EEDFD1"/>
</g>
<path d="M120.318 24.7585L54.3302 22.169C53.7083 22.1443 53.202 22.6522 53.202 23.3002V150.197C53.202 150.845 53.7083 151.34 54.3302 151.3L120.318 147.047C120.875 147.01 121.328 146.483 121.328 145.87V25.9097C121.328 25.2968 120.875 24.7803 120.318 24.7585Z" fill="#F5F5F5"/>
<path d="M88.2225 80.8216C75.8676 80.9215 65.6296 70.1457 65.6296 56.7982C65.6296 43.4507 75.8682 32.9114 88.2225 33.2965C100.33 33.6736 110.003 44.443 110.003 57.3101C110.003 70.1772 100.33 80.7235 88.2225 80.8216Z" fill="#EEDFD1"/>
<path d="M108.526 57.2935C108.526 69.3072 99.5205 79.1073 88.2224 79.1831C76.7095 79.2605 67.2142 69.2475 67.2142 56.8171C67.2142 44.3868 76.7095 34.5924 88.2224 34.9356C99.5205 35.2725 108.526 45.2798 108.526 57.2935Z" fill="white"/>
<path opacity="0.74" d="M112.946 89.3075L62.4463 90.0851C61.0351 90.1069 59.8885 91.3259 59.8885 92.8077C59.8885 94.2896 61.0351 95.4684 62.4463 95.4409L112.946 94.4445C114.241 94.4187 115.289 93.2508 115.289 91.835C115.289 90.4191 114.241 89.2874 112.946 89.3075Z" fill="#D64355"/>
<path d="M112.946 99.4215L71.5772 100.411C70.1867 100.444 69.0573 101.664 69.0573 103.135C69.0573 104.606 70.1867 105.766 71.5772 105.727L112.946 104.559C114.241 104.522 115.289 103.345 115.289 101.929C115.289 100.513 114.241 99.3905 112.946 99.4215Z" fill="#EEDFD1"/>
<path d="M62.4699 105.984L62.4229 105.985C61.0243 106.025 59.8886 104.908 59.8886 103.491V103.256C59.8886 101.839 61.0249 100.663 62.4229 100.63L62.4699 100.629C63.865 100.595 64.9939 101.712 64.9939 103.123V103.358C64.9939 104.769 63.865 105.945 62.4699 105.984V105.984Z" fill="#D64355"/>
<path d="M62.4464 106.487C60.7729 106.535 59.4075 105.144 59.4075 103.386C59.4075 101.628 60.7723 100.167 62.4464 100.127C64.1153 100.088 65.4704 101.479 65.4704 103.228C65.4704 104.976 64.1159 106.439 62.4464 106.486V106.487ZM62.4464 101.131C61.3015 101.159 60.3691 102.16 60.3691 103.361C60.3691 104.563 61.3021 105.515 62.4464 105.483C63.589 105.452 64.5168 104.451 64.5168 103.254C64.5168 102.056 63.589 101.104 62.4464 101.132V101.131Z" fill="#EEDFD1"/>
<path d="M112.946 108.572L71.5772 109.88C70.1867 109.925 69.0573 111.153 69.0573 112.624C69.0573 114.095 70.1867 115.247 71.5772 115.197L112.946 113.709C114.241 113.663 115.289 112.477 115.289 111.061C115.289 109.645 114.241 108.531 112.946 108.572Z" fill="#EEDFD1"/>
<path d="M62.4699 115.524L62.4229 115.526C61.0243 115.577 59.8886 114.468 59.8886 113.051V112.816C59.8886 111.399 61.0249 110.215 62.4229 110.17L62.4699 110.169C63.865 110.124 64.9939 111.233 64.9939 112.644V112.878C64.9939 114.289 63.865 115.474 62.4699 115.524V115.524Z" fill="#D64355"/>
<path d="M62.4464 116.027C60.7729 116.088 59.4075 114.708 59.4075 112.95C59.4075 111.192 60.7723 109.719 62.4464 109.667C64.1153 109.615 65.4704 110.996 65.4704 112.745C65.4704 114.494 64.1159 115.966 62.4464 116.027ZM62.4464 110.671C61.3015 110.708 60.3691 111.716 60.3691 112.917C60.3691 114.118 61.3021 115.064 62.4464 115.023C63.589 114.982 64.5168 113.975 64.5168 112.777C64.5168 111.579 63.589 110.635 62.4464 110.671Z" fill="#EEDFD1"/>
<path d="M112.946 117.723L71.5772 119.35C70.1867 119.405 69.0573 120.642 69.0573 122.113C69.0573 123.584 70.1867 124.727 71.5772 124.666L112.946 122.86C114.241 122.803 115.289 121.61 115.289 120.194C115.289 118.778 114.241 117.671 112.946 117.723Z" fill="#EEDFD1"/>
<path d="M62.4464 125.567C60.7729 125.641 59.4075 124.271 59.4075 122.514C59.4075 120.756 60.7723 119.273 62.4464 119.207C64.1153 119.142 65.4704 120.512 65.4704 122.262C65.4704 124.011 64.1159 125.493 62.4464 125.567ZM62.4464 120.212C61.3015 120.257 60.3691 121.272 60.3691 122.473C60.3691 123.675 61.3021 124.612 62.4464 124.563C63.589 124.514 64.5168 123.499 64.5168 122.301C64.5168 121.103 63.589 120.166 62.4464 120.212Z" fill="#EEDFD1"/>
<path d="M112.946 126.873L71.5772 128.82C70.1867 128.885 69.0573 130.131 69.0573 131.602C69.0573 133.073 70.1867 134.208 71.5772 134.136L112.946 132.01C114.241 131.943 115.289 130.742 115.289 129.326C115.289 127.91 114.241 126.812 112.946 126.872V126.873Z" fill="#EEDFD1"/>
<path d="M62.4699 134.603L62.4229 134.606C61.0243 134.677 59.8886 133.587 59.8886 132.17V131.935C59.8886 130.518 61.0249 129.315 62.4229 129.25L62.4699 129.248C63.865 129.182 64.9939 130.273 64.9939 131.684V131.918C64.9939 133.329 63.865 134.531 62.4699 134.603V134.603Z" fill="#D64355"/>
<path d="M62.4464 135.107C60.7729 135.194 59.4075 133.834 59.4075 132.077C59.4075 130.319 60.7723 128.825 62.4464 128.747C64.1153 128.669 65.4704 130.029 65.4704 131.778C65.4704 133.527 64.1159 135.021 62.4464 135.107ZM62.4464 129.751C61.3015 129.806 60.3691 130.827 60.3691 132.029C60.3691 133.231 61.3021 134.161 62.4464 134.103C63.589 134.045 64.5168 133.022 64.5168 131.825C64.5168 130.627 63.589 129.697 62.4464 129.751V129.751Z" fill="#EEDFD1"/>
<g style="mix-blend-mode:soft-light" opacity="0.35">
<path d="M93.3294 116.542C92.208 102.065 100.615 96.0774 97.4106 82.9675C93.4473 66.7534 78.1796 66.04 72.9713 50.1059C71.0572 44.2491 70.2525 35.5228 75.2295 22.9891L54.3308 22.169C53.7088 22.1443 53.2025 22.6522 53.2025 23.3002V150.197C53.2025 150.845 53.7088 151.34 54.3308 151.3L111.424 147.62C97.9335 136.007 93.9897 125.071 93.3294 116.542Z" fill="white"/>
</g>
<g style="mix-blend-mode:multiply">
<path d="M117.448 40.9149L111.407 36.1165L105.305 40.6222V25.4813C105.305 24.3007 104.775 23.1656 103.866 22.4045L103.819 22.3649L115.336 22.8183C116.504 22.8642 117.449 23.8812 117.449 25.0905V40.9149H117.448Z" fill="#EEDFD1"/>
</g>
<path d="M118.553 40.915L112.513 35.8359L106.41 40.6051V24.5792C106.41 23.3298 105.88 22.128 104.972 21.3228L104.925 21.2809L116.442 21.7607C117.609 21.8095 118.554 22.8862 118.554 24.1654V40.9156L118.553 40.915Z" fill="#D64355"/>
<mask id="mask0_1_289" style="mask-type:luminance" maskUnits="userSpaceOnUse" x="65" y="35" width="45" height="45">
<path d="M109.449 58.2526C109.449 70.1988 99.8653 79.9348 87.8447 79.9993C75.598 80.0646 65.5004 70.1025 65.5004 57.7472C65.5004 45.3919 75.598 35.6608 87.8447 36.0086C99.8653 36.3499 109.449 46.3064 109.449 58.2526Z" fill="white"/>
</mask>
<g mask="url(#mask0_1_289)">
<path d="M63.6795 74.1119C63.6795 74.1119 84.911 61.7492 111.146 74.0727C111.146 74.0727 107.805 84.6447 87.8447 85.3535C67.2541 86.0851 63.6795 74.1119 63.6795 74.1119Z" fill="#3D84C4"/>
<path d="M84.0831 57.9595L83.2878 63.862C83.0568 67.6203 79.3286 69.0222 79.3286 69.0222C83.7059 74.2136 92.0709 74.0225 94.9956 69.1161C92.9748 68.3584 90.709 65.2435 90.6208 63.0716L90.4167 58.033L84.0839 57.9603L84.0831 57.9595Z" fill="#F0EBE7"/>
<path d="M93.7332 52.861C93.7332 57.8433 90.7243 63.1734 86.9929 63.1448C83.2403 63.1162 80.1825 57.6848 80.1825 52.6503C80.1825 47.6158 83.2403 44.9278 86.9929 45.0087C90.7243 45.0887 93.7332 47.8787 93.7332 52.861Z" fill="#F0EBE7"/>
<path d="M79.9809 53.9186C80.3565 53.8648 80.7313 53.8117 81.106 53.7578C80.9338 53.343 80.2226 51.5075 81.106 49.926C81.9536 48.4081 83.9483 47.6985 85.4711 47.8284C87.2004 47.9762 88.2382 48.791 89.1061 48.1917C89.5936 47.8553 89.752 47.2291 89.8075 46.7408C89.8459 47.0543 89.9332 47.5197 90.1578 48.0358C90.8028 49.5185 91.8945 49.8443 92.4889 50.8274C92.889 51.4887 93.1494 52.5894 92.4889 54.5098C92.8188 54.4951 93.1478 54.4804 93.4769 54.4657C93.8247 53.3871 94.2411 51.857 94.4999 49.9807C94.8845 47.1948 95.1499 45.2768 94.0574 44.3166C93.8394 44.1255 92.8767 43.3646 90.5717 44.0088C90.0312 43.4356 88.893 42.3839 87.1408 41.8254C86.535 41.6319 83.5278 40.6742 80.8603 42.5309C79.046 43.794 77.6237 46.1962 78.0809 48.2178C78.3226 49.2866 78.984 49.7774 79.5661 51.8464C79.8119 52.72 79.9246 53.4532 79.9809 53.9186Z" fill="#D64355"/>
<path d="M92.7968 54.6875C92.7968 54.6875 93.2296 52.5115 94.5433 52.7483C95.8546 52.9851 93.9758 56.5328 92.7968 56.9484V54.6883V54.6875Z" fill="#F0EBE7"/>
<path d="M81.0266 54.5205C81.0266 54.5205 80.5857 52.3111 79.2434 52.5079C77.8986 52.7055 79.8239 56.3519 81.0266 56.801V54.5205Z" fill="#F0EBE7"/>
</g>
</g>
<defs>
<linearGradient id="paint0_linear_1_289" x1="49.8199" y1="86.7361" x2="121.013" y2="86.7361" gradientUnits="userSpaceOnUse">
<stop stop-color="#444B8C"/>
<stop offset="1" stop-color="#26264F"/>
</linearGradient>
<linearGradient id="paint1_linear_1_289" x1="102.848" y1="22.3191" x2="107.638" y2="22.3191" gradientUnits="userSpaceOnUse">
<stop stop-color="#AB316D"/>
<stop offset="1" stop-color="#792D3D"/>
</linearGradient>
<clipPath id="clip0_1_289">
<rect width="164.713" height="164" fill="white"/>
</clipPath>
</defs>
</svg>
