<svg width="179" height="142" viewBox="0 0 179 142" fill="none" xmlns="http://www.w3.org/2000/svg">
<path d="M85.834 1.43043L86.9338 21.605C86.9743 22.3269 87.5613 22.887 88.2833 22.8937L124.584 23.1569C125.333 23.1569 125.954 22.5563 125.954 21.8074L126.068 6.10634C126.068 5.35064 125.461 4.73662 124.705 4.73662L102.378 4.71638C102.021 4.71638 101.67 4.57469 101.414 4.31829L97.5609 0.465568C97.3112 0.215916 96.9671 0.0674672 96.6095 0.0674672L87.1969 0C86.4143 0 85.7867 0.654485 85.8272 1.43718L85.834 1.43043Z" fill="#F1E9E2"/>
<path d="M126.095 2.35716L86.4357 2.06644L86.2619 25.7692L125.922 26.0599L126.095 2.35716Z" fill="#F5F5F5"/>
<path d="M83.2627 4.17698L86.1101 28.9127C86.1573 29.3513 86.5284 29.6819 86.9738 29.6887L125.629 29.9721C126.088 29.9721 126.466 29.6279 126.506 29.1691L128.632 4.46711C128.672 3.96106 128.274 3.52248 127.768 3.51573L84.1399 3.19861C83.6136 3.19861 83.202 3.65069 83.2627 4.17698Z" fill="#F1E9E2"/>
<path d="M128.748 43.4787L130.017 66.8312C130.064 67.6611 130.745 68.3157 131.582 68.3224L173.598 68.6328C174.468 68.6328 175.177 67.9378 175.183 67.0674L175.318 48.89C175.318 48.0129 174.617 47.3044 173.746 47.3044L147.904 47.2842C147.486 47.2842 147.088 47.1155 146.791 46.8254L142.331 42.3721C142.041 42.082 141.642 41.9133 141.231 41.9133L130.341 41.8323C129.43 41.8323 128.708 42.588 128.755 43.4922L128.748 43.4787Z" fill="#F2EDE9"/>
<path d="M175.349 44.5525L129.442 44.2159L129.24 71.6499L175.148 71.9864L175.349 44.5525Z" fill="#F5F5F5"/>
<path d="M125.772 46.6501L129.065 75.2858C129.126 75.7918 129.551 76.1765 130.064 76.1832L174.805 76.5138C175.332 76.5138 175.777 76.1157 175.824 75.5894L178.287 47.001C178.341 46.4139 177.875 45.9079 177.282 45.9011L126.784 45.53C126.177 45.53 125.698 46.0563 125.772 46.6568V46.6501Z" fill="#F2EDE9"/>
<path d="M11.5056 116.58C7.69331 116.58 4.60303 113.49 4.60303 109.678V49.6669C4.60303 46.6104 7.24798 44.1409 10.5069 44.1409H16.1477C18.4486 44.1409 20.5402 42.8859 21.5051 40.9291L22.7196 38.4663C23.6845 36.5096 25.7762 35.2546 28.077 35.2546H54.864C56.9489 35.2546 58.8854 36.287 59.9447 37.9738L61.2604 40.0587C62.3198 41.7388 64.2562 42.7779 66.3412 42.7779H100.489C103.748 42.7779 106.393 45.2542 106.393 48.304V109.678C106.393 113.49 103.303 116.58 99.4909 116.58H11.5056Z" fill="#D64355"/>
<g opacity="0.3">
<path d="M11.5058 116.58C7.69355 116.58 4.60327 113.49 4.60327 109.678V49.6671C4.60327 46.6105 7.24823 44.141 10.5072 44.141H16.148C18.4488 44.141 20.5405 42.886 21.5054 40.9293L22.7199 38.4665C23.6847 36.5097 25.7764 35.2547 28.0773 35.2547H54.8642C56.9491 35.2547 58.8856 36.2871 59.9449 37.9739L61.2607 40.0589C62.32 41.7389 64.2565 42.778 66.3414 42.778H100.49C103.749 42.778 106.394 45.2543 106.394 48.3041V109.678C106.394 113.49 103.303 116.58 99.4911 116.58H11.5058Z" fill="black"/>
</g>
<path d="M62.981 42.7711L41.2613 42.7239L39.3181 39.0938C38.0563 36.739 35.4923 35.2546 32.6787 35.2546H11.4448C7.66632 35.2546 4.60303 38.1222 4.60303 41.6646V109.3C4.60303 113.321 8.08465 116.58 12.376 116.58H98.6204C102.912 116.58 106.393 113.321 106.393 109.3V47.7439C106.393 44.9978 104.167 42.7711 101.421 42.7711H62.9743H62.981Z" fill="#D64355"/>
<path d="M109.76 130.616H4.5286C2.05796 130.616 0.0551147 132.618 0.0551147 135.089V136.391C0.0551147 138.862 2.05796 140.865 4.5286 140.865H109.76C112.231 140.865 114.234 138.862 114.234 136.391V135.089C114.234 132.618 112.231 130.616 109.76 130.616Z" fill="#E0E0E0"/>
<path d="M4.5286 130.616H52.6776C55.1471 130.616 57.1511 132.62 57.1511 135.089V136.398C57.1511 138.868 55.1471 140.871 52.6776 140.871H4.5286C2.05907 140.871 0.0551147 138.868 0.0551147 136.398V135.089C0.0551147 132.62 2.05907 130.616 4.5286 130.616Z" fill="#489AD8"/>
<g opacity="0.3">
<path d="M8.68537 130.616L2.60602 140.258L3.55739 140.683C3.82729 140.804 4.11742 140.865 4.40756 140.865H6.3373L12.9362 130.616H8.67188H8.68537Z" fill="white"/>
</g>
<g opacity="0.3">
<path d="M19.5417 130.616L13.0845 140.865H17.2071L23.806 130.616H19.5417Z" fill="white"/>
</g>
<g opacity="0.3">
<path d="M30.4049 130.616L23.9409 140.865H28.0635L34.6624 130.616H30.4049Z" fill="white"/>
</g>
<g opacity="0.3">
<path d="M41.2613 130.616L34.8041 140.865H38.9268L45.5257 130.616H41.2613Z" fill="white"/>
</g>
<g opacity="0.3">
<path d="M52.1246 130.616L45.6674 140.865H49.79L54.9854 132.788L55.5994 131.911C54.8033 131.027 53.582 130.676 52.1246 130.616Z" fill="white"/>
</g>
<path d="M109.861 140.865C109.861 140.865 110.071 140.865 110.482 140.798C110.887 140.744 111.494 140.602 112.176 140.177C112.857 139.772 113.6 139.043 114.018 137.957C114.227 137.417 114.321 136.79 114.308 136.122C114.295 135.447 114.355 134.718 114.146 133.996C113.788 132.552 112.5 131.108 110.678 130.785C110.233 130.69 109.76 130.71 109.274 130.71C108.789 130.71 108.296 130.71 107.797 130.71C106.791 130.71 105.746 130.71 104.659 130.717C100.328 130.724 95.3885 130.731 89.9366 130.744C68.1157 130.758 37.9821 130.778 4.69747 130.798C3.69886 130.798 2.70701 131.156 1.93781 131.79C1.16861 132.424 0.635572 133.322 0.446647 134.293C0.345437 134.772 0.365678 135.272 0.365678 135.791C0.365678 136.311 0.365678 136.796 0.466888 137.282C0.669308 138.24 1.22259 139.118 1.97155 139.732C2.72725 140.346 3.69212 140.683 4.65699 140.696C5.66234 140.696 6.66095 140.696 7.65955 140.696C9.65676 140.696 11.6337 140.696 13.5972 140.696C21.4444 140.696 29.0149 140.703 36.2278 140.71C50.6469 140.723 63.6355 140.737 74.5459 140.75C85.4496 140.777 94.2684 140.791 100.381 140.804C103.425 140.818 105.793 140.831 107.405 140.838C108.202 140.845 108.809 140.852 109.234 140.858C109.646 140.858 109.855 140.879 109.855 140.879C109.855 140.879 109.646 140.892 109.234 140.899C108.816 140.899 108.202 140.906 107.405 140.919C105.793 140.926 103.425 140.939 100.381 140.953C94.2751 140.966 85.4496 140.987 74.5459 141.007C63.6355 141.02 50.6469 141.027 36.2278 141.047C29.0149 141.047 21.4444 141.054 13.5972 141.061C11.6337 141.061 9.65676 141.061 7.65955 141.061C6.66095 141.061 5.65559 141.061 4.65024 141.061C3.6044 141.047 2.55856 140.683 1.74214 140.022C0.925708 139.354 0.331942 138.416 0.10928 137.37C-0.00542484 136.85 0.0013226 136.311 0.0013226 135.805C0.0013226 135.299 -0.01892 134.765 0.0890374 134.239C0.298205 133.193 0.878476 132.222 1.70165 131.534C2.53157 130.852 3.6044 130.467 4.68398 130.461C37.9619 130.481 68.0955 130.501 89.9231 130.515C95.375 130.521 100.307 130.535 104.646 130.542C105.732 130.542 106.771 130.542 107.783 130.548C108.289 130.548 108.782 130.548 109.261 130.548C109.74 130.548 110.226 130.535 110.691 130.636C112.581 130.987 113.903 132.485 114.261 133.976C114.47 134.732 114.402 135.467 114.409 136.142C114.416 136.823 114.315 137.464 114.092 138.018C113.654 139.124 112.884 139.86 112.189 140.265C111.494 140.683 110.874 140.811 110.462 140.858C110.05 140.906 109.841 140.885 109.841 140.885L109.861 140.865Z" fill="#1E3E68"/>
</svg>
