<svg width="647" height="585" viewBox="0 0 647 585" fill="none" xmlns="http://www.w3.org/2000/svg">
<path d="M87.7542 101.32C82.0753 132.932 56.5517 318.245 226.131 373.416C226.131 373.416 274.339 255.739 92.1919 99.729C90.5981 98.3627 88.1257 99.2562 87.7542 101.32Z" fill="#1E3E68"/>
<path d="M102.161 130.184C104.097 140.965 106.499 151.639 109.109 162.266C111.729 172.889 114.623 183.444 117.767 193.925C124.078 214.878 131.402 235.542 140.058 255.656C148.723 275.757 158.697 295.346 170.627 313.749C173.609 318.345 176.707 322.874 179.964 327.286C183.216 331.698 186.573 336.041 190.129 340.224C193.678 344.406 197.334 348.508 201.203 352.405C205.067 356.309 209.083 360.06 213.264 363.63C213.661 363.967 214.26 363.922 214.599 363.523C214.937 363.125 214.892 362.527 214.492 362.187L214.484 362.182C210.332 358.671 206.342 354.972 202.499 351.12C198.647 347.275 195.006 343.222 191.467 339.086C187.924 334.951 184.572 330.655 181.321 326.283C178.063 321.915 174.969 317.423 171.983 312.864C160.04 294.607 150.017 275.129 141.293 255.12C132.578 235.097 125.18 214.504 118.794 193.613C115.61 183.162 112.677 172.636 110.016 162.039C107.367 151.441 104.921 140.782 102.95 130.048L102.948 130.039C102.907 129.823 102.698 129.675 102.482 129.716C102.263 129.755 102.119 129.963 102.159 130.182L102.161 130.184Z" fill="#BDD0FB"/>
<g clip-path="url(#clip0_1_445)">
<path d="M570.999 282.251L550.847 333.515L626.867 363.43L647.019 312.166L570.999 282.251Z" fill="#3D84C4"/>
<path d="M647.001 312.83C647.001 312.83 646.671 312.988 646.025 313.232C645.307 313.49 644.36 313.835 643.184 314.251C640.63 315.141 637.057 316.376 632.666 317.883C623.684 320.913 611.401 325.047 597.784 329.641L597.497 329.742L597.339 329.483C597.224 329.282 597.095 329.067 596.966 328.852C589.748 316.232 583.22 304.804 578.441 296.449C576.131 292.343 574.252 288.983 572.903 286.586C572.286 285.466 571.798 284.562 571.425 283.887C571.095 283.269 570.937 282.939 570.951 282.925C570.98 282.925 571.181 283.226 571.554 283.815C571.956 284.475 572.487 285.351 573.147 286.442C574.539 288.811 576.49 292.128 578.886 296.19C583.707 304.517 590.308 315.902 597.597 328.478C597.726 328.694 597.841 328.909 597.97 329.11L597.525 328.938C611.171 324.43 623.483 320.367 632.479 317.395C636.899 315.974 640.5 314.811 643.069 313.978C644.274 313.605 645.236 313.318 645.953 313.088C646.613 312.887 646.972 312.801 646.972 312.83H647.001Z" fill="white"/>
<path d="M550.834 334.193C550.733 334.007 559.214 329.24 569.774 323.526C580.335 317.812 588.973 313.319 589.059 313.505C589.16 313.692 580.68 318.458 570.119 324.172C559.558 329.886 550.934 334.365 550.834 334.193Z" fill="white"/>
<path d="M614.572 322.794C614.773 322.737 617.671 331.939 621.058 343.338C624.444 354.752 627.041 364.041 626.84 364.098C626.639 364.156 623.741 354.953 620.34 343.554C616.954 332.155 614.357 322.852 614.557 322.794H614.572Z" fill="white"/>
<path d="M319.74 497.94L246.653 534.447L271.245 583.733L344.332 547.226L319.74 497.94Z" fill="#3D84C4"/>
<path d="M320.26 498.434C320.26 498.434 320.159 498.793 319.901 499.425C319.614 500.128 319.227 501.061 318.753 502.224C317.691 504.722 316.228 508.196 314.42 512.475C310.66 521.175 305.509 533.091 299.813 546.27L299.698 546.543L299.397 546.486C299.167 546.442 298.923 546.385 298.679 546.328C284.474 543.241 271.617 540.456 262.219 538.417C257.627 537.383 253.867 536.536 251.184 535.933C249.936 535.632 248.946 535.402 248.2 535.216C247.511 535.043 247.167 534.943 247.167 534.914C247.167 534.885 247.54 534.943 248.228 535.072C248.989 535.216 249.993 535.402 251.242 535.646C253.939 536.192 257.699 536.953 262.319 537.9C271.732 539.882 284.603 542.595 298.823 545.61C299.067 545.667 299.31 545.71 299.54 545.768L299.124 545.983C304.907 532.832 310.13 520.945 313.932 512.274C315.826 508.039 317.376 504.579 318.481 502.109C319.012 500.975 319.428 500.056 319.758 499.367C320.059 498.75 320.217 498.42 320.246 498.434H320.26Z" fill="white"/>
<path d="M271.761 584.228C271.56 584.185 273.684 574.681 276.511 563.009C279.337 551.337 281.777 541.919 281.978 541.963C282.179 542.006 280.055 551.51 277.228 563.182C274.401 574.854 271.962 584.272 271.761 584.228Z" fill="white"/>
<path d="M305.954 529.214C306.04 529.027 314.822 533.018 325.555 538.129C336.302 543.24 344.926 547.533 344.84 547.72C344.754 547.906 335.972 543.915 325.239 538.804C314.506 533.693 305.868 529.4 305.954 529.214Z" fill="white"/>
<path d="M201.036 0.00012207H120.079C114.5 0.00012207 109.978 4.52521 109.978 10.1072V50.1191C109.978 55.7011 114.5 60.2262 120.079 60.2262H201.036C206.615 60.2262 211.137 55.7011 211.137 50.1191V10.1072C211.137 4.52521 206.615 0.00012207 201.036 0.00012207Z" fill="#489AD8"/>
<path d="M171.52 58.3022L195.425 79.5643L197.391 58.6898" fill="#489AD8"/>
<path d="M147.4 30.9668C147.4 34.2257 144.759 36.8674 141.517 36.8674C138.274 36.8674 135.633 34.2257 135.633 30.9668C135.633 27.7078 138.274 25.0662 141.517 25.0662C144.759 25.0662 147.4 27.7078 147.4 30.9668Z" fill="white"/>
<path d="M167.674 30.9668C167.674 34.2257 165.034 36.8674 161.791 36.8674C158.548 36.8674 155.908 34.2257 155.908 30.9668C155.908 27.7078 158.548 25.0662 161.791 25.0662C165.034 25.0662 167.674 27.7078 167.674 30.9668Z" fill="white"/>
<path d="M187.935 30.9668C187.935 34.2257 185.295 36.8674 182.038 36.8674C178.78 36.8674 176.154 34.2257 176.154 30.9668C176.154 27.7078 178.795 25.0662 182.038 25.0662C185.28 25.0662 187.935 27.7078 187.935 30.9668Z" fill="white"/>
<path d="M494.044 64.582L473.892 115.846L549.912 145.761L570.064 94.4972L494.044 64.582Z" fill="#1E3E68"/>
<path d="M570.047 95.1839C570.047 95.1839 569.717 95.3418 569.071 95.5859C568.353 95.8443 567.406 96.1889 566.23 96.6052C563.676 97.4953 560.103 98.73 555.712 100.237C546.73 103.267 534.447 107.401 520.83 111.996L520.543 112.096L520.385 111.838C520.27 111.637 520.141 111.421 520.012 111.206C512.794 98.5864 506.266 87.1585 501.487 78.803C499.177 74.697 497.298 71.3375 495.949 68.94C495.332 67.8202 494.844 66.9157 494.471 66.2409C494.141 65.6236 493.983 65.2934 493.997 65.2791C494.026 65.2791 494.227 65.5805 494.6 66.1692C495.002 66.8296 495.533 67.7053 496.193 68.7964C497.585 71.1653 499.536 74.4816 501.932 78.5446C506.754 86.8714 513.354 98.2562 520.643 110.833C520.772 111.048 520.887 111.263 521.016 111.464L520.571 111.292C534.217 106.784 546.529 102.721 555.525 99.7493C559.945 98.328 563.547 97.1651 566.115 96.3324C567.32 95.9592 568.282 95.672 568.999 95.4423C569.659 95.2413 570.018 95.1552 570.018 95.1839H570.047Z" fill="white"/>
<path d="M473.866 116.546C473.765 116.359 482.245 111.593 492.806 105.879C503.367 100.165 512.005 95.6715 512.091 95.8581C512.191 96.0448 503.711 100.811 493.15 106.525C482.59 112.239 473.966 116.718 473.866 116.546Z" fill="white"/>
<path d="M537.618 105.147C537.819 105.09 540.717 114.292 544.104 125.691C547.49 137.105 550.087 146.394 549.886 146.451C549.685 146.508 546.787 137.306 543.386 125.907C540 114.508 537.403 105.204 537.604 105.147H537.618Z" fill="white"/>
<path d="M381.948 307.678C392.171 307.678 400.458 299.386 400.458 289.158C400.458 278.93 392.171 270.638 381.948 270.638C371.725 270.638 363.438 278.93 363.438 289.158C363.438 299.386 371.725 307.678 381.948 307.678Z" fill="#E8505B"/>
<path d="M445.657 307.678C455.88 307.678 464.167 299.386 464.167 289.158C464.167 278.93 455.88 270.638 445.657 270.638C435.434 270.638 427.147 278.93 427.147 289.158C427.147 299.386 435.434 307.678 445.657 307.678Z" fill="#E8505B"/>
<path d="M568.857 193.342C568.857 193.342 569.216 193.285 569.947 193.27C570.665 193.242 571.755 193.342 573.147 193.629C574.553 193.888 576.261 194.491 578.126 195.496C579.977 196.529 581.972 198.065 583.694 200.291C585.416 202.502 586.85 205.416 587.353 208.862C587.539 209.709 587.51 210.613 587.582 211.518C587.582 212.393 587.597 213.298 587.611 214.217C587.625 216.054 587.64 217.964 587.668 219.959C587.726 227.913 587.797 237.072 587.869 247.352C587.97 267.896 588.099 292.877 588.242 321.633C588.271 328.826 588.3 336.248 588.328 343.886C588.328 347.704 588.357 351.595 588.371 355.529C588.371 357.496 588.371 359.477 588.386 361.472C588.386 362.463 588.386 363.468 588.386 364.473C588.343 365.55 588.314 366.641 588.113 367.718C587.439 372.025 585.229 376.145 581.857 379.117C578.528 382.103 574.094 383.998 569.488 384.084C560.979 384.113 552.255 384.142 543.345 384.185L544.894 382.778C543.201 401.169 541.422 420.579 539.556 440.75L539.27 443.894L536.83 441.884C514.776 423.694 491.186 404.255 466.65 384.027L467.798 384.443C422.756 384.472 374.2 384.486 323.993 384.515C314.867 384.515 305.813 384.515 296.802 384.515C294.549 384.515 292.296 384.515 290.058 384.515C288.91 384.515 287.862 384.544 286.643 384.486C285.409 384.457 284.189 384.299 282.969 384.055C278.119 383.05 273.772 380.107 270.93 376.116C269.51 374.121 268.462 371.867 267.86 369.512C267.214 367.186 267.171 364.573 267.214 362.477C267.214 358.07 267.214 353.677 267.214 349.298C267.214 340.541 267.214 331.869 267.228 323.269C267.272 288.857 267.3 255.65 267.343 224.037C267.343 220.088 267.343 216.155 267.358 212.25C267.358 210.268 267.501 208.015 268.147 206.019C268.749 203.98 269.653 202.057 270.83 200.305C273.241 196.859 276.684 194.146 280.63 192.825C282.596 192.165 284.648 191.734 286.7 191.734C288.666 191.691 290.488 191.734 292.368 191.734C307.334 191.763 321.869 191.792 335.931 191.835C364.041 191.921 390.227 191.993 414.118 192.064C461.914 192.308 500.599 192.524 527.345 192.653C540.704 192.811 551.079 192.926 558.124 192.997C561.639 193.084 564.323 193.141 566.131 193.184C567.939 193.242 568.857 193.313 568.857 193.371C568.857 193.428 567.939 193.5 566.131 193.557C564.323 193.6 561.639 193.658 558.124 193.744C551.079 193.83 540.704 193.945 527.345 194.089C500.599 194.232 461.929 194.433 414.118 194.677C390.213 194.749 364.041 194.821 335.931 194.907C321.883 194.936 307.348 194.964 292.368 195.007C290.517 195.007 288.58 195.007 286.772 195.036C285.05 195.036 283.357 195.424 281.721 195.969C278.449 197.075 275.594 199.357 273.599 202.214C271.634 205.143 270.629 208.56 270.744 212.25C270.744 216.155 270.744 220.074 270.758 224.037C270.787 255.664 270.83 288.857 270.873 323.269C270.873 331.869 270.873 340.555 270.887 349.298C270.887 353.677 270.887 358.07 270.887 362.477C270.859 364.774 270.902 366.626 271.418 368.593C271.906 370.517 272.767 372.34 273.929 373.963C276.24 377.207 279.784 379.605 283.715 380.409C284.705 380.595 285.695 380.739 286.7 380.753C287.719 380.796 288.91 380.753 290.015 380.782C292.253 380.782 294.506 380.782 296.759 380.782C305.77 380.782 314.838 380.782 323.95 380.782C374.157 380.811 422.713 380.825 467.754 380.854H468.4L468.902 381.27C493.382 401.571 516.914 421.081 538.925 439.328L536.199 440.463C538.136 420.306 540.001 400.896 541.766 382.519L541.895 381.112H543.302C552.184 381.127 560.865 381.141 569.345 381.155C573.262 381.098 577.036 379.504 579.877 376.992C582.761 374.48 584.669 370.977 585.272 367.301C585.459 366.382 585.473 365.449 585.53 364.53C585.53 363.525 585.53 362.521 585.53 361.53C585.53 359.534 585.53 357.553 585.545 355.586C585.545 351.653 585.573 347.776 585.588 343.943C585.616 336.291 585.645 328.869 585.674 321.69C585.817 292.934 585.932 267.953 586.047 247.409C586.119 237.144 586.19 227.985 586.248 220.017C586.262 218.021 586.291 216.112 586.305 214.274C586.305 213.355 586.32 212.451 586.334 211.575C586.276 210.728 586.334 209.881 586.176 209.077C585.774 205.832 584.497 203.047 582.919 200.908C581.34 198.754 579.489 197.204 577.739 196.156C575.974 195.122 574.367 194.462 573.004 194.132C570.306 193.443 568.814 193.514 568.828 193.385L568.857 193.342Z" fill="#E8505B"/>
<path d="M450.148 285.512H170.66C160.049 285.512 151.447 294.119 151.447 304.736V455.581C151.447 466.197 160.049 474.804 170.66 474.804H450.148C460.759 474.804 469.361 466.197 469.361 455.581V304.736C469.361 294.119 460.759 285.512 450.148 285.512Z" fill="#E8505B"/>
<path d="M344.842 468.76L420.016 535.533L426.186 469.937" fill="#E8505B"/>
<path d="M250.541 401.356C260.764 401.356 269.051 393.064 269.051 382.836C269.051 372.608 260.764 364.316 250.541 364.316C240.318 364.316 232.031 372.608 232.031 382.836C232.031 393.064 240.318 401.356 250.541 401.356Z" fill="white"/>
<path d="M314.25 401.356C324.473 401.356 332.76 393.064 332.76 382.836C332.76 372.608 324.473 364.316 314.25 364.316C304.027 364.316 295.74 372.608 295.74 382.836C295.74 393.064 304.027 401.356 314.25 401.356Z" fill="white"/>
<path d="M377.973 401.356C388.196 401.356 396.484 393.064 396.484 382.836C396.484 372.608 388.196 364.316 377.973 364.316C367.751 364.316 359.463 372.608 359.463 382.836C359.463 393.064 367.751 401.356 377.973 401.356Z" fill="white"/>
<path d="M509.366 307.678C519.589 307.678 527.876 299.386 527.876 289.158C527.876 278.93 519.589 270.638 509.366 270.638C499.143 270.638 490.856 278.93 490.856 289.158C490.856 299.386 499.143 307.678 509.366 307.678Z" fill="#E8505B"/>
</g>
<defs>
<clipPath id="clip0_1_445">
<rect width="559.564" height="584.228" fill="white" transform="translate(87.4355 6.10352e-05)"/>
</clipPath>
</defs>
</svg>
