<svg width="669" height="598" viewBox="0 0 669 598" fill="none" xmlns="http://www.w3.org/2000/svg">
<path d="M4.11969 386.623L482.026 386.623V371.554L4.11969 371.554V386.623Z" fill="#1E3E68"/>
<path d="M4.12466 234.766L490.542 234.766V220.317L4.12466 220.317V234.766Z" fill="#1E3E68"/>
<path d="M4.12466 118.344L485.738 118.344V105.082L4.12466 105.082V118.344Z" fill="#1E3E68"/>
<path d="M15.2446 496.845H9.53674e-07L9.53674e-07 0.0878906H4.13633C10.2671 0.0878906 15.2446 5.0647 15.2446 11.1947L15.2446 496.845Z" fill="#1E3E68"/>
<path d="M494.395 500.344H477.564L477.564 14.2645C477.564 7.57968 482.992 2.15637 489.674 2.15637H494.391L494.391 500.344H494.395Z" fill="#1E3E68"/>
<path d="M146.563 219.974C140.398 220.091 135.333 215.123 135.333 208.958V159.931C135.333 153.489 140.51 148.248 146.953 148.179C166.286 147.966 206.163 147.957 238.789 150.706C243.242 151.083 246.706 154.729 246.867 159.194L249.915 206.595C250.14 212.864 245.184 218.101 238.911 218.222L146.563 219.978V219.974Z" fill="url(#paint0_linear_1_34)"/>
<path d="M146.531 165.238C146.449 169.408 146.575 176.028 146.674 180.307C146.726 182.531 148.682 184.226 150.893 183.97L166.805 182.106C168.926 181.859 170.417 179.904 170.101 177.793L168.149 164.765C167.872 162.914 166.285 161.549 164.412 161.549H150.312C148.257 161.549 146.575 163.187 146.536 165.242L146.531 165.238Z" fill="white"/>
<path opacity="0.37" d="M188.112 189.927L201.384 191.358C203.24 191.557 204.826 190.027 204.688 188.163L201.787 148.687C196.224 148.509 190.735 148.383 185.441 148.292V186.953C185.441 188.484 186.595 189.763 188.112 189.927Z" fill="white"/>
<path d="M193.549 183.081C193.588 183.792 194.178 184.338 194.88 184.338C194.906 184.338 194.932 184.338 194.958 184.338C195.695 184.295 196.255 183.666 196.211 182.929L194.208 148.478C193.311 148.456 192.422 148.434 191.529 148.417L193.54 183.086L193.549 183.081Z" fill="white"/>
<path d="M153.89 177.671C153.656 177.671 153.461 177.489 153.448 177.255L152.758 166.404C152.741 166.156 152.928 165.948 153.175 165.931C153.435 165.909 153.63 166.1 153.647 166.347L154.337 177.198C154.354 177.445 154.168 177.653 153.92 177.671C153.912 177.671 153.903 177.671 153.894 177.671H153.89Z" fill="url(#paint1_linear_1_34)"/>
<path d="M155.304 177.67C155.065 177.67 154.866 177.479 154.857 177.241L154.497 166.182C154.489 165.935 154.684 165.731 154.927 165.722C155.208 165.709 155.378 165.909 155.386 166.151L155.746 177.21C155.755 177.458 155.56 177.661 155.317 177.67H155.304Z" fill="url(#paint2_linear_1_34)"/>
<path d="M157.207 177.671C156.969 177.671 156.773 177.484 156.765 177.246C156.678 175.429 156.244 166.347 156.244 166.165C156.244 165.918 156.444 165.718 156.691 165.718C156.938 165.718 157.133 165.918 157.138 166.161C157.142 166.403 157.48 173.487 157.654 177.202C157.667 177.449 157.476 177.658 157.229 177.666C157.22 177.666 157.216 177.666 157.207 177.666V177.671Z" fill="url(#paint3_linear_1_34)"/>
<path d="M160.173 178.117C159.696 178.117 159.301 177.74 159.284 177.259C158.907 166.542 158.972 166.304 159.015 166.143C159.145 165.666 159.639 165.389 160.108 165.519C160.541 165.636 160.814 166.061 160.758 166.494C160.728 167.14 160.927 173.374 161.062 177.198C161.079 177.688 160.693 178.1 160.203 178.117C160.194 178.117 160.181 178.117 160.173 178.117Z" fill="url(#paint4_linear_1_34)"/>
<path d="M162.103 177.671C161.855 177.671 161.656 177.472 161.656 177.225V166.374C161.656 166.127 161.855 165.927 162.103 165.927C162.35 165.927 162.549 166.127 162.549 166.374V177.225C162.549 177.472 162.35 177.671 162.103 177.671Z" fill="url(#paint5_linear_1_34)"/>
<path d="M163.658 177.67C163.416 177.67 163.221 177.475 163.212 177.237C163.125 173.465 162.926 167.305 162.748 166.568C162.67 166.429 162.67 166.252 162.765 166.109C162.9 165.9 163.177 165.844 163.381 165.983C163.624 166.143 163.854 166.291 164.101 177.22C164.105 177.467 163.91 177.67 163.667 177.675H163.658V177.67Z" fill="url(#paint6_linear_1_34)"/>
<path d="M151.493 178.658C151.024 178.658 150.63 178.29 150.604 177.813L150.01 166.416C149.984 165.926 150.361 165.505 150.851 165.479C151.315 165.445 151.761 165.83 151.787 166.32L152.381 177.718C152.407 178.207 152.03 178.628 151.54 178.654C151.523 178.654 151.51 178.654 151.493 178.654V178.658Z" fill="url(#paint7_linear_1_34)"/>
<path d="M263.65 219.931C257.485 220.048 252.42 215.08 252.42 208.915V159.888C252.42 153.446 257.597 148.205 264.04 148.136C283.373 147.923 323.25 147.914 355.876 150.663C360.329 151.04 363.793 154.686 363.954 159.151L367.002 206.552C367.227 212.821 362.272 218.058 355.998 218.179L263.65 219.935V219.931Z" fill="url(#paint8_linear_1_34)"/>
<path d="M263.619 165.189C263.537 169.36 263.663 175.98 263.762 180.259C263.815 182.483 265.77 184.178 267.981 183.922L283.893 182.058C286.014 181.811 287.505 179.855 287.189 177.744L285.238 164.717C284.96 162.866 283.373 161.5 281.5 161.5H267.4C265.345 161.5 263.663 163.139 263.624 165.194L263.619 165.189Z" fill="white"/>
<path opacity="0.37" d="M305.2 189.879L318.471 191.309C320.327 191.509 321.914 189.979 321.775 188.114L318.875 148.638C313.312 148.46 307.823 148.335 302.529 148.244V186.905C302.529 188.435 303.682 189.714 305.2 189.879Z" fill="white"/>
<path d="M310.637 183.038C310.676 183.749 311.265 184.295 311.968 184.295C311.994 184.295 312.02 184.295 312.046 184.295C312.783 184.252 313.342 183.623 313.299 182.886L311.296 148.435C310.398 148.413 309.509 148.391 308.616 148.374L310.628 183.042L310.637 183.038Z" fill="white"/>
<path d="M270.978 177.628C270.744 177.628 270.549 177.446 270.536 177.211L269.846 166.361C269.829 166.113 270.015 165.905 270.262 165.888C270.523 165.866 270.718 166.057 270.735 166.304L271.424 177.155C271.442 177.402 271.255 177.61 271.008 177.628C270.999 177.628 270.991 177.628 270.982 177.628H270.978Z" fill="url(#paint9_linear_1_34)"/>
<path d="M272.396 177.628C272.158 177.628 271.959 177.437 271.95 177.199L271.59 166.14C271.581 165.893 271.776 165.689 272.019 165.68C272.301 165.667 272.47 165.867 272.479 166.109L272.839 177.168C272.847 177.416 272.652 177.619 272.409 177.628H272.396Z" fill="url(#paint10_linear_1_34)"/>
<path d="M274.295 177.627C274.057 177.627 273.862 177.441 273.853 177.203C273.766 175.386 273.333 166.304 273.333 166.122C273.333 165.875 273.532 165.675 273.779 165.675C274.026 165.675 274.222 165.875 274.226 166.118C274.23 166.36 274.568 173.444 274.742 177.159C274.755 177.406 274.564 177.614 274.317 177.623C274.308 177.623 274.304 177.623 274.295 177.623V177.627Z" fill="url(#paint11_linear_1_34)"/>
<path d="M277.261 178.071C276.784 178.071 276.389 177.694 276.372 177.212C275.995 166.496 276.06 166.253 276.103 166.097C276.233 165.62 276.728 165.343 277.196 165.473C277.629 165.59 277.903 166.015 277.846 166.448C277.816 167.094 278.015 173.328 278.15 177.152C278.167 177.642 277.781 178.053 277.291 178.071C277.283 178.071 277.27 178.071 277.261 178.071Z" fill="url(#paint12_linear_1_34)"/>
<path d="M279.19 177.628C278.943 177.628 278.744 177.429 278.744 177.182V166.331C278.744 166.084 278.943 165.884 279.19 165.884C279.437 165.884 279.637 166.084 279.637 166.331V177.182C279.637 177.429 279.437 177.628 279.19 177.628Z" fill="url(#paint13_linear_1_34)"/>
<path d="M280.747 177.627C280.504 177.627 280.309 177.432 280.301 177.194C280.214 173.422 280.014 167.262 279.837 166.525C279.759 166.386 279.759 166.209 279.854 166.065C279.988 165.857 280.266 165.801 280.47 165.94C280.713 166.1 280.942 166.248 281.189 177.177C281.194 177.424 280.999 177.627 280.756 177.632H280.747V177.627Z" fill="url(#paint14_linear_1_34)"/>
<path d="M268.585 178.616C268.117 178.616 267.722 178.248 267.696 177.771L267.102 166.374C267.076 165.884 267.453 165.463 267.943 165.437C268.407 165.403 268.854 165.788 268.88 166.278L269.474 177.676C269.5 178.165 269.123 178.586 268.633 178.612C268.615 178.612 268.602 178.612 268.585 178.612V178.616Z" fill="url(#paint15_linear_1_34)"/>
<path d="M29.1117 222.033C22.9462 222.15 17.882 217.182 17.882 211.017V161.99C17.882 155.548 23.0589 150.307 29.5019 150.237C48.8351 150.025 88.7112 150.016 121.338 152.765C125.791 153.142 129.255 156.788 129.415 161.253L132.463 208.654C132.689 214.923 127.733 220.16 121.459 220.281L29.1117 222.037V222.033Z" fill="url(#paint16_linear_1_34)"/>
<path d="M29.0767 167.293C28.9943 171.463 29.1201 178.083 29.2198 182.362C29.2718 184.586 31.2272 186.281 33.4385 186.025L49.3508 184.161C51.471 183.914 52.9625 181.958 52.646 179.847L50.6949 166.82C50.4174 164.969 48.8305 163.603 46.9574 163.603H32.8575C30.8023 163.603 29.1201 165.242 29.081 167.297L29.0767 167.293Z" fill="white"/>
<path opacity="0.37" d="M70.6602 191.982L83.932 193.413C85.7877 193.612 87.3746 192.082 87.2358 190.218L84.3352 150.741C78.7724 150.564 73.2833 150.438 67.9894 150.347V189.008C67.9894 190.538 69.1427 191.817 70.6602 191.982Z" fill="white"/>
<path d="M76.0984 185.14C76.1374 185.851 76.727 186.397 77.4294 186.397C77.4555 186.397 77.4815 186.397 77.5075 186.397C78.2446 186.354 78.8039 185.725 78.7605 184.988L76.7574 150.537C75.8599 150.515 74.971 150.493 74.0779 150.476L76.0897 185.144L76.0984 185.14Z" fill="white"/>
<path d="M36.438 179.73C36.2039 179.73 36.0087 179.548 35.9957 179.314L35.3063 168.463C35.289 168.216 35.4754 168.008 35.7226 167.991C35.9827 167.969 36.1778 168.16 36.1952 168.407L36.8846 179.258C36.9019 179.505 36.7155 179.713 36.4683 179.73C36.4597 179.73 36.451 179.73 36.4423 179.73H36.438Z" fill="url(#paint17_linear_1_34)"/>
<path d="M37.8512 179.731C37.6128 179.731 37.4133 179.54 37.4046 179.302L37.0448 168.242C37.0361 167.995 37.2312 167.792 37.474 167.783C37.7558 167.77 37.9249 167.969 37.9336 168.212L38.2935 179.271C38.3021 179.518 38.107 179.722 37.8642 179.731H37.8512Z" fill="url(#paint18_linear_1_34)"/>
<path d="M39.7549 179.73C39.5165 179.73 39.3213 179.544 39.3127 179.305C39.226 177.489 38.7924 168.407 38.7924 168.224C38.7924 167.977 38.9918 167.778 39.239 167.778C39.4861 167.778 39.6812 167.977 39.6855 168.22C39.6899 168.463 40.0281 175.547 40.2015 179.262C40.2145 179.509 40.0237 179.717 39.7766 179.726C39.7679 179.726 39.7636 179.726 39.7549 179.726V179.73Z" fill="url(#paint19_linear_1_34)"/>
<path d="M42.7206 180.172C42.2437 180.172 41.8491 179.795 41.8318 179.314C41.4546 168.597 41.5196 168.355 41.563 168.199C41.693 167.722 42.1873 167.444 42.6556 167.574C43.0892 167.691 43.3623 168.116 43.306 168.55C43.2756 169.196 43.4751 175.43 43.6095 179.253C43.6268 179.743 43.2409 180.155 42.751 180.172C42.7423 180.172 42.7293 180.172 42.7206 180.172Z" fill="url(#paint20_linear_1_34)"/>
<path d="M44.6494 179.73C44.4023 179.73 44.2028 179.53 44.2028 179.283V168.432C44.2028 168.185 44.4023 167.986 44.6494 167.986C44.8966 167.986 45.096 168.185 45.096 168.432V179.283C45.096 179.53 44.8966 179.73 44.6494 179.73Z" fill="url(#paint21_linear_1_34)"/>
<path d="M46.2063 179.73C45.9635 179.73 45.7684 179.535 45.7598 179.297C45.673 175.525 45.4736 169.365 45.2958 168.628C45.2178 168.489 45.2178 168.311 45.3132 168.168C45.4476 167.96 45.7251 167.904 45.9288 168.042C46.1717 168.203 46.4014 168.35 46.6486 179.279C46.6529 179.526 46.4578 179.73 46.215 179.734H46.2063V179.73Z" fill="url(#paint22_linear_1_34)"/>
<path d="M34.0412 180.719C33.5729 180.719 33.1784 180.351 33.1524 179.874L32.5584 168.477C32.5323 167.987 32.9096 167.566 33.3995 167.54C33.8634 167.506 34.31 167.892 34.336 168.381L34.93 179.779C34.956 180.269 34.5788 180.689 34.0889 180.715C34.0715 180.715 34.0585 180.715 34.0412 180.715V180.719Z" fill="url(#paint23_linear_1_34)"/>
<path d="M25.9903 108.005C21.169 108.122 17.2104 103.154 17.2104 96.9892V47.9625C17.2104 41.5204 21.2557 36.2791 26.2938 36.2098C41.4083 35.9973 72.5782 35.9887 98.0855 38.7372C101.567 39.1143 104.273 42.7602 104.398 47.2255L106.783 94.6265C106.961 100.895 103.085 106.132 98.1809 106.253L25.9903 108.009V108.005Z" fill="url(#paint24_linear_1_34)"/>
<path d="M23.5909 53.268C23.5085 57.4385 23.6342 64.0583 23.734 68.3372C23.786 70.5611 25.7414 72.2562 27.9527 72.0004L43.865 70.1363C45.9852 69.8892 47.4766 67.934 47.1601 65.8228L45.209 52.7955C44.9315 50.9444 43.3447 49.5788 41.4716 49.5788H27.3717C25.3165 49.5788 23.6343 51.2175 23.5952 53.2724L23.5909 53.268Z" fill="white"/>
<path opacity="0.37" d="M65.1722 77.9564L78.444 79.387C80.2997 79.5864 81.8866 78.0561 81.7479 76.1919L78.8473 36.7157C73.2845 36.5379 67.7954 36.4122 62.5014 36.3212V74.9824C62.5014 76.5127 63.6547 77.7916 65.1722 77.9564Z" fill="white"/>
<path d="M70.6088 71.1124C70.6478 71.8234 71.2375 72.3696 71.9399 72.3696C71.9659 72.3696 71.9919 72.3696 72.0179 72.3696C72.755 72.3262 73.3143 71.6976 73.2709 70.9607L71.2678 36.5089C70.3703 36.4872 69.4815 36.4655 68.5883 36.4482L70.6001 71.1167L70.6088 71.1124Z" fill="white"/>
<path d="M30.9491 65.7019C30.7149 65.7019 30.5198 65.5198 30.5068 65.2857L29.8174 54.4347C29.8001 54.1876 29.9865 53.9795 30.2337 53.9622C30.4938 53.9405 30.6889 54.1313 30.7063 54.3784L31.3957 65.2294C31.413 65.4765 31.2266 65.6846 30.9794 65.7019C30.9708 65.7019 30.9621 65.7019 30.9534 65.7019H30.9491Z" fill="url(#paint25_linear_1_34)"/>
<path d="M32.3672 65.7012C32.1287 65.7012 31.9292 65.5105 31.9206 65.272L31.5607 54.2129C31.552 53.9658 31.7471 53.7621 31.9899 53.7534C32.2718 53.7404 32.4409 53.9398 32.4495 54.1826L32.8094 65.2417C32.8181 65.4888 32.623 65.6925 32.3802 65.7012H32.3672Z" fill="url(#paint26_linear_1_34)"/>
<path d="M34.2665 65.7017C34.0281 65.7017 33.833 65.5153 33.8243 65.2769C33.7376 63.4604 33.304 54.3782 33.304 54.1961C33.304 53.949 33.5034 53.7496 33.7506 53.7496C33.9977 53.7496 34.1928 53.949 34.1972 54.1918C34.2015 54.4345 34.5397 61.5182 34.7131 65.2335C34.7261 65.4806 34.5354 65.6887 34.2882 65.6974C34.2796 65.6974 34.2752 65.6974 34.2665 65.6974V65.7017Z" fill="url(#paint27_linear_1_34)"/>
<path d="M37.2322 66.1482C36.7553 66.1482 36.3608 65.7711 36.3434 65.2899C35.9662 54.5733 36.0312 54.3348 36.0746 54.1744C36.2047 53.6976 36.699 53.4201 37.1672 53.5502C37.6008 53.6672 37.8739 54.0921 37.8176 54.5256C37.7872 55.1715 37.9867 61.4055 38.1211 65.2292C38.1384 65.719 37.7525 66.1309 37.2626 66.1482C37.2539 66.1482 37.2409 66.1482 37.2322 66.1482Z" fill="url(#paint28_linear_1_34)"/>
<path d="M39.1611 65.7013C38.9139 65.7013 38.7145 65.5019 38.7145 65.2548V54.4038C38.7145 54.1567 38.9139 53.9573 39.1611 53.9573C39.4082 53.9573 39.6076 54.1567 39.6076 54.4038V65.2548C39.6076 65.5019 39.4082 65.7013 39.1611 65.7013Z" fill="url(#paint29_linear_1_34)"/>
<path d="M40.718 65.7017C40.4752 65.7017 40.2801 65.5066 40.2714 65.2682C40.1847 61.4965 39.9852 55.3362 39.8075 54.5992C39.7294 54.4605 39.7294 54.2828 39.8248 54.1397C39.9592 53.9316 40.2367 53.8753 40.4405 54.014C40.6833 54.1744 40.9131 54.3218 41.1602 65.2508C41.1646 65.4979 40.9694 65.7017 40.7266 65.706H40.718V65.7017Z" fill="url(#paint30_linear_1_34)"/>
<path d="M28.5511 66.6895C28.0828 66.6895 27.6883 66.321 27.6623 65.8441L27.0683 54.4469C27.0422 53.957 27.4195 53.5365 27.9094 53.5105C28.3733 53.4758 28.8199 53.8616 28.8459 54.3515L29.4399 65.7487C29.4659 66.2386 29.0887 66.6591 28.5988 66.6851C28.5814 66.6851 28.5684 66.6851 28.5511 66.6851V66.6895Z" fill="url(#paint31_linear_1_34)"/>
<path d="M117.773 105.823C112.952 105.94 108.994 100.972 108.994 94.8076V45.7809C108.994 39.3388 113.039 34.0976 118.077 34.0282C133.191 33.8158 164.361 33.8071 189.869 36.5556C193.35 36.9328 196.056 40.5787 196.182 45.0439L198.566 92.4449C198.744 98.7136 194.868 103.951 189.964 104.072L117.773 105.828V105.823Z" fill="url(#paint32_linear_1_34)"/>
<path d="M115.375 51.0832C115.293 55.2537 115.418 61.8735 115.518 66.1524C115.57 68.3763 117.526 70.0714 119.737 69.8156L135.649 67.9515C137.769 67.7044 139.261 65.7492 138.944 63.638L136.993 50.6107C136.716 48.7596 135.129 47.394 133.256 47.394H119.156C117.101 47.394 115.418 49.0327 115.379 51.0876L115.375 51.0832Z" fill="white"/>
<path opacity="0.37" d="M156.956 75.7726L170.228 77.2032C172.083 77.4026 173.67 75.8723 173.532 74.0082L170.631 34.5319C165.068 34.3542 159.579 34.2284 154.285 34.1374V72.7986C154.285 74.329 155.438 75.6078 156.956 75.7726Z" fill="white"/>
<path d="M162.396 68.9265C162.435 69.6374 163.025 70.1837 163.727 70.1837C163.753 70.1837 163.779 70.1837 163.805 70.1837C164.542 70.1403 165.102 69.5117 165.058 68.7747L163.055 34.323C162.158 34.3013 161.269 34.2796 160.376 34.2623L162.388 68.9308L162.396 68.9265Z" fill="white"/>
<path d="M122.733 63.5168C122.498 63.5168 122.303 63.3347 122.29 63.1006L121.601 52.2496C121.584 52.0025 121.77 51.7944 122.017 51.7771C122.277 51.7554 122.472 51.9461 122.49 52.1932L123.179 63.0442C123.197 63.2913 123.01 63.4994 122.763 63.5168C122.754 63.5168 122.746 63.5168 122.737 63.5168H122.733Z" fill="url(#paint33_linear_1_34)"/>
<path d="M124.151 63.5172C123.912 63.5172 123.713 63.3264 123.704 63.088L123.344 52.0289C123.336 51.7818 123.531 51.5781 123.773 51.5694C124.055 51.5564 124.224 51.7558 124.233 51.9986L124.593 63.0577C124.602 63.3048 124.407 63.5085 124.164 63.5172H124.151Z" fill="url(#paint34_linear_1_34)"/>
<path d="M126.05 63.5166C125.812 63.5166 125.616 63.3302 125.608 63.0917C125.521 61.2753 125.088 52.1931 125.088 52.011C125.088 51.7639 125.287 51.5645 125.534 51.5645C125.781 51.5645 125.976 51.7595 125.981 52.0066C125.985 52.2494 126.323 59.3331 126.497 63.0484C126.51 63.2955 126.319 63.5036 126.072 63.5122C126.063 63.5122 126.059 63.5122 126.05 63.5122V63.5166Z" fill="url(#paint35_linear_1_34)"/>
<path d="M129.016 63.9632C128.539 63.9632 128.144 63.586 128.127 63.1048C127.75 52.3882 127.815 52.1498 127.858 51.9894C127.988 51.5125 128.483 51.235 128.951 51.3651C129.384 51.4822 129.657 51.907 129.601 52.3405C129.571 52.9865 129.77 59.2205 129.905 63.0441C129.922 63.534 129.536 63.9458 129.046 63.9632C129.037 63.9632 129.024 63.9632 129.016 63.9632Z" fill="url(#paint36_linear_1_34)"/>
<path d="M130.945 63.5162C130.697 63.5162 130.498 63.3168 130.498 63.0697V52.2187C130.498 51.9716 130.697 51.7722 130.945 51.7722C131.192 51.7722 131.391 51.9716 131.391 52.2187V63.0697C131.391 63.3168 131.192 63.5162 130.945 63.5162Z" fill="url(#paint37_linear_1_34)"/>
<path d="M132.502 63.5166C132.259 63.5166 132.064 63.3215 132.055 63.083C131.968 59.3114 131.769 53.1511 131.591 52.4141C131.513 52.2754 131.513 52.0976 131.608 51.9546C131.743 51.7465 132.02 51.6901 132.224 51.8289C132.467 51.9893 132.697 52.1367 132.944 63.0657C132.948 63.3128 132.753 63.5166 132.51 63.5209H132.502V63.5166Z" fill="url(#paint38_linear_1_34)"/>
<path d="M120.339 64.5046C119.871 64.5046 119.476 64.1361 119.45 63.6593L118.856 52.2621C118.83 51.7722 119.207 51.3517 119.697 51.3257C120.161 51.291 120.608 51.6768 120.634 52.1667L121.228 63.5639C121.254 64.0538 120.877 64.4743 120.387 64.5003C120.369 64.5003 120.356 64.5003 120.339 64.5003V64.5046Z" fill="url(#paint39_linear_1_34)"/>
<path d="M210.871 105.823C206.049 105.94 202.091 100.972 202.091 94.8076V45.7809C202.091 39.3388 206.136 34.0976 211.174 34.0282C226.289 33.8158 257.459 33.8071 282.966 36.5556C286.448 36.9328 289.153 40.5787 289.279 45.0439L291.663 92.4449C291.841 98.7136 287.965 103.951 283.061 104.072L210.871 105.828V105.823Z" fill="url(#paint40_linear_1_34)"/>
<path d="M208.474 51.0832C208.392 55.2537 208.517 61.8735 208.617 66.1524C208.669 68.3763 210.625 70.0714 212.836 69.8156L228.748 67.9515C230.868 67.7044 232.36 65.7492 232.043 63.638L230.092 50.6107C229.815 48.7596 228.228 47.394 226.355 47.394H212.255C210.2 47.394 208.517 49.0327 208.478 51.0876L208.474 51.0832Z" fill="white"/>
<path opacity="0.37" d="M250.053 75.7726L263.325 77.2032C265.181 77.4026 266.768 75.8723 266.629 74.0082L263.728 34.5319C258.165 34.3542 252.676 34.2284 247.382 34.1374V72.7986C247.382 74.329 248.536 75.6078 250.053 75.7726Z" fill="white"/>
<path d="M255.495 68.9265C255.534 69.6374 256.123 70.1837 256.826 70.1837C256.852 70.1837 256.878 70.1837 256.904 70.1837C257.641 70.1403 258.2 69.5117 258.157 68.7747L256.154 34.323C255.256 34.3013 254.367 34.2796 253.474 34.2623L255.486 68.9308L255.495 68.9265Z" fill="white"/>
<path d="M215.831 63.5168C215.597 63.5168 215.402 63.3347 215.389 63.1006L214.699 52.2496C214.682 52.0025 214.869 51.7944 215.116 51.7771C215.376 51.7554 215.571 51.9461 215.588 52.1932L216.278 63.0442C216.295 63.2913 216.109 63.4994 215.861 63.5168C215.853 63.5168 215.844 63.5168 215.835 63.5168H215.831Z" fill="url(#paint41_linear_1_34)"/>
<path d="M217.249 63.5172C217.01 63.5172 216.811 63.3264 216.802 63.088L216.442 52.0289C216.434 51.7818 216.629 51.5781 216.871 51.5694C217.153 51.5564 217.322 51.7558 217.331 51.9986L217.691 63.0577C217.7 63.3048 217.504 63.5085 217.262 63.5172H217.249Z" fill="url(#paint42_linear_1_34)"/>
<path d="M219.148 63.5166C218.909 63.5166 218.714 63.3302 218.705 63.0917C218.619 61.2753 218.185 52.1931 218.185 52.011C218.185 51.7639 218.384 51.5645 218.632 51.5645C218.879 51.5645 219.074 51.7595 219.078 52.0066C219.082 52.2494 219.421 59.3331 219.594 63.0484C219.607 63.2955 219.416 63.5036 219.169 63.5122C219.161 63.5122 219.156 63.5122 219.148 63.5122V63.5166Z" fill="url(#paint43_linear_1_34)"/>
<path d="M222.114 63.9632C221.637 63.9632 221.242 63.586 221.225 63.1048C220.848 52.3882 220.913 52.1498 220.956 51.9894C221.086 51.5125 221.58 51.235 222.049 51.3651C222.482 51.4822 222.755 51.907 222.699 52.3405C222.669 52.9865 222.868 59.2205 223.003 63.0441C223.02 63.534 222.634 63.9458 222.144 63.9632C222.135 63.9632 222.122 63.9632 222.114 63.9632Z" fill="url(#paint44_linear_1_34)"/>
<path d="M224.043 63.5162C223.795 63.5162 223.596 63.3168 223.596 63.0697V52.2187C223.596 51.9716 223.795 51.7722 224.043 51.7722C224.29 51.7722 224.489 51.9716 224.489 52.2187V63.0697C224.489 63.3168 224.29 63.5162 224.043 63.5162Z" fill="url(#paint45_linear_1_34)"/>
<path d="M225.599 63.5166C225.357 63.5166 225.162 63.3215 225.153 63.083C225.066 59.3114 224.867 53.1511 224.689 52.4141C224.611 52.2754 224.611 52.0976 224.706 51.9546C224.841 51.7465 225.118 51.6901 225.322 51.8289C225.565 51.9893 225.795 52.1367 226.042 63.0657C226.046 63.3128 225.851 63.5166 225.608 63.5209H225.599V63.5166Z" fill="url(#paint46_linear_1_34)"/>
<path d="M213.437 64.5046C212.969 64.5046 212.574 64.1361 212.548 63.6593L211.954 52.2621C211.928 51.7722 212.305 51.3517 212.795 51.3257C213.259 51.291 213.706 51.6768 213.732 52.1667L214.326 63.5639C214.352 64.0538 213.974 64.4743 213.485 64.5003C213.467 64.5003 213.454 64.5003 213.437 64.5003V64.5046Z" fill="url(#paint47_linear_1_34)"/>
<path d="M304.845 111.061C300.023 111.178 296.065 106.209 296.065 100.045V51.0181C296.065 44.576 300.11 39.3347 305.148 39.2654C320.263 39.0529 351.432 39.0443 376.94 41.7928C380.421 42.17 383.127 45.8158 383.253 50.2811L385.637 97.6821C385.815 103.951 381.939 109.188 377.035 109.309L304.845 111.065V111.061Z" fill="url(#paint48_linear_1_34)"/>
<path d="M302.443 56.3247C302.36 60.4951 302.486 67.115 302.586 71.3938C302.638 73.6178 304.593 75.3128 306.804 75.0571L322.717 73.1929C324.837 72.9458 326.328 70.9906 326.012 68.8794L324.061 55.8521C323.783 54.001 322.196 52.6354 320.323 52.6354H306.223C304.168 52.6354 302.486 54.2741 302.447 56.329L302.443 56.3247Z" fill="white"/>
<path opacity="0.37" d="M344.023 81.0087L357.295 82.4393C359.15 82.6388 360.737 81.1084 360.598 79.2443L357.698 39.768C352.135 39.5903 346.646 39.4646 341.352 39.3735V78.0348C341.352 79.5651 342.505 80.844 344.023 81.0087Z" fill="white"/>
<path d="M349.464 74.1679C349.503 74.8789 350.093 75.4251 350.795 75.4251C350.821 75.4251 350.847 75.4251 350.873 75.4251C351.61 75.3818 352.17 74.7532 352.126 74.0162L350.123 39.5644C349.226 39.5427 348.337 39.5211 347.444 39.5037L349.455 74.1723L349.464 74.1679Z" fill="white"/>
<path d="M309.8 68.7574C309.566 68.7574 309.371 68.5754 309.358 68.3413L308.668 57.4903C308.651 57.2432 308.837 57.0351 309.085 57.0177C309.345 56.9961 309.54 57.1868 309.557 57.4339L310.247 68.2849C310.264 68.532 310.077 68.7401 309.83 68.7574C309.822 68.7574 309.813 68.7574 309.804 68.7574H309.8Z" fill="url(#paint49_linear_1_34)"/>
<path d="M311.218 68.7578C310.979 68.7578 310.78 68.5671 310.771 68.3287L310.411 57.2696C310.402 57.0225 310.598 56.8187 310.84 56.8101C311.122 56.797 311.291 56.9965 311.3 57.2392L311.66 68.2983C311.668 68.5454 311.473 68.7492 311.231 68.7578H311.218Z" fill="url(#paint50_linear_1_34)"/>
<path d="M313.116 68.7572C312.878 68.7572 312.683 68.5708 312.674 68.3324C312.587 66.5159 312.154 57.4337 312.154 57.2516C312.154 57.0045 312.353 56.8051 312.6 56.8051C312.848 56.8051 313.043 57.0045 313.047 57.2473C313.051 57.4901 313.39 64.5738 313.563 68.289C313.576 68.5361 313.385 68.7442 313.138 68.7529C313.129 68.7529 313.125 68.7529 313.116 68.7529V68.7572Z" fill="url(#paint51_linear_1_34)"/>
<path d="M316.087 69.2049C315.61 69.2049 315.215 68.8277 315.198 68.3465C314.821 57.6299 314.886 57.3871 314.929 57.2311C315.059 56.7542 315.554 56.4767 316.022 56.6068C316.456 56.7239 316.729 57.1487 316.672 57.5822C316.642 58.2282 316.841 64.4622 316.976 68.2858C316.993 68.7757 316.607 69.1875 316.117 69.2049C316.109 69.2049 316.096 69.2049 316.087 69.2049Z" fill="url(#paint52_linear_1_34)"/>
<path d="M318.011 68.758C317.764 68.758 317.565 68.5585 317.565 68.3114V57.4604C317.565 57.2133 317.764 57.0139 318.011 57.0139C318.259 57.0139 318.458 57.2133 318.458 57.4604V68.3114C318.458 68.5585 318.259 68.758 318.011 68.758Z" fill="url(#paint53_linear_1_34)"/>
<path d="M319.573 68.7583C319.33 68.7583 319.135 68.5632 319.126 68.3248C319.039 64.5532 318.84 58.3929 318.662 57.6559C318.584 57.5172 318.584 57.3394 318.68 57.1964C318.814 56.9883 319.091 56.9319 319.295 57.0706C319.538 57.231 319.768 57.3784 320.015 68.3074C320.019 68.5546 319.824 68.7583 319.581 68.7626H319.573V68.7583Z" fill="url(#paint54_linear_1_34)"/>
<path d="M307.406 69.7461C306.938 69.7461 306.544 69.3776 306.518 68.9007L305.924 57.5035C305.898 57.0136 306.275 56.5931 306.765 56.5671C307.229 56.5324 307.675 56.9183 307.701 57.4081L308.295 68.8054C308.321 69.2952 307.944 69.7157 307.454 69.7418C307.437 69.7418 307.424 69.7418 307.406 69.7418V69.7461Z" fill="url(#paint55_linear_1_34)"/>
<path d="M396.191 114.628C391.369 114.745 387.411 109.777 387.411 103.613V54.586C387.411 48.1439 391.456 42.9026 396.494 42.8332C411.609 42.6208 442.779 42.6121 468.286 45.3607C471.768 45.7378 474.473 49.3837 474.599 53.849L476.983 101.25C477.161 107.519 473.285 112.756 468.381 112.877L396.191 114.633V114.628Z" fill="url(#paint56_linear_1_34)"/>
<path d="M393.792 59.8883C393.71 64.0587 393.836 70.6786 393.936 74.9574C393.988 77.1814 395.943 78.8764 398.154 78.6207L414.066 76.7565C416.187 76.5094 417.678 74.5542 417.362 72.443L415.411 59.4157C415.133 57.5646 413.546 56.199 411.673 56.199H397.573C395.518 56.199 393.836 57.8377 393.797 59.8926L393.792 59.8883Z" fill="white"/>
<path opacity="0.37" d="M435.373 84.5766L448.644 86.0072C450.5 86.2066 452.087 84.6763 451.948 82.8122L449.048 43.3359C443.485 43.1582 437.996 43.0324 432.702 42.9414V81.6027C432.702 83.133 433.855 84.4119 435.373 84.5766Z" fill="white"/>
<path d="M440.813 77.7369C440.852 78.4479 441.442 78.9941 442.144 78.9941C442.17 78.9941 442.196 78.9941 442.222 78.9941C442.959 78.9508 443.519 78.3222 443.475 77.5852L441.472 43.1334C440.575 43.1117 439.686 43.09 438.793 43.0727L440.804 77.7412L440.813 77.7369Z" fill="white"/>
<path d="M401.151 72.3249C400.916 72.3249 400.721 72.1428 400.708 71.9087L400.019 61.0577C400.001 60.8106 400.188 60.6025 400.435 60.5852C400.695 60.5635 400.89 60.7543 400.908 61.0014L401.597 71.8523C401.614 72.0995 401.428 72.3075 401.181 72.3249C401.172 72.3249 401.164 72.3249 401.155 72.3249H401.151Z" fill="url(#paint57_linear_1_34)"/>
<path d="M402.569 72.3252C402.331 72.3252 402.131 72.1345 402.123 71.896L401.763 60.837C401.754 60.5899 401.949 60.3861 402.192 60.3774C402.474 60.3644 402.643 60.5638 402.651 60.8066L403.011 71.8657C403.02 72.1128 402.825 72.3166 402.582 72.3252H402.569Z" fill="url(#paint58_linear_1_34)"/>
<path d="M404.468 72.3257C404.229 72.3257 404.034 72.1393 404.026 71.9009C403.939 70.0844 403.505 61.0022 403.505 60.8201C403.505 60.573 403.705 60.3736 403.952 60.3736C404.199 60.3736 404.394 60.573 404.399 60.8158C404.403 61.0586 404.741 68.1423 404.914 71.8575C404.928 72.1046 404.737 72.3127 404.49 72.3214C404.481 72.3214 404.477 72.3214 404.468 72.3214V72.3257Z" fill="url(#paint59_linear_1_34)"/>
<path d="M407.433 72.7669C406.956 72.7669 406.561 72.3898 406.544 71.9086C406.167 61.192 406.232 60.9492 406.275 60.7931C406.405 60.3163 406.899 60.0388 407.368 60.1689C407.801 60.2859 408.074 60.7108 408.018 61.1443C407.988 61.7902 408.187 68.0242 408.321 71.8479C408.339 72.3378 407.953 72.7496 407.463 72.7669C407.454 72.7669 407.441 72.7669 407.433 72.7669Z" fill="url(#paint60_linear_1_34)"/>
<path d="M409.362 72.3253C409.115 72.3253 408.915 72.1259 408.915 71.8788V61.0278C408.915 60.7807 409.115 60.5813 409.362 60.5813C409.609 60.5813 409.809 60.7807 409.809 61.0278V71.8788C409.809 72.1259 409.609 72.3253 409.362 72.3253Z" fill="url(#paint61_linear_1_34)"/>
<path d="M410.919 72.3257C410.676 72.3257 410.481 72.1306 410.472 71.8922C410.386 68.1206 410.186 61.9602 410.008 61.2233C409.93 61.0845 409.93 60.9068 410.026 60.7637C410.16 60.5556 410.438 60.4993 410.641 60.638C410.884 60.7984 411.114 60.9458 411.361 71.8748C411.365 72.1219 411.17 72.3257 410.927 72.33H410.919V72.3257Z" fill="url(#paint62_linear_1_34)"/>
<path d="M398.758 73.3137C398.29 73.3137 397.895 72.9452 397.869 72.4683L397.275 61.0711C397.249 60.5812 397.626 60.1607 398.116 60.1347C398.58 60.1 399.027 60.4858 399.053 60.9757L399.647 72.3729C399.673 72.8628 399.295 73.2833 398.806 73.3093C398.788 73.3093 398.775 73.3093 398.758 73.3093V73.3137Z" fill="url(#paint63_linear_1_34)"/>
<path d="M148.952 373.292C142.787 373.478 137.723 365.632 137.723 355.886V278.429C137.723 268.255 142.9 259.97 149.343 259.862C168.676 259.528 208.552 259.51 241.179 263.854C245.631 264.448 249.096 270.21 249.256 277.263L252.304 352.149C252.53 362.055 247.574 370.331 241.3 370.517L148.952 373.288V373.292Z" fill="url(#paint64_linear_1_34)"/>
<path d="M148.922 276.873C148.84 281.044 148.966 287.663 149.065 291.942C149.117 294.166 151.073 295.861 153.284 295.605L169.196 293.741C171.317 293.494 172.808 291.539 172.491 289.428L170.54 276.401C170.263 274.549 168.676 273.184 166.803 273.184H152.703C150.648 273.184 148.966 274.823 148.927 276.877L148.922 276.873Z" fill="white"/>
<path opacity="0.37" d="M190.501 301.558L203.773 302.989C205.628 303.188 207.215 301.658 207.077 299.794L204.176 260.317C198.613 260.14 193.124 260.014 187.83 259.923V298.584C187.83 300.115 188.983 301.393 190.501 301.558Z" fill="white"/>
<path d="M195.942 294.716C195.981 295.427 196.571 295.974 197.273 295.974C197.299 295.974 197.325 295.974 197.351 295.974C198.089 295.93 198.648 295.302 198.604 294.565L196.601 260.113C195.704 260.091 194.815 260.069 193.922 260.052L195.934 294.721L195.942 294.716Z" fill="white"/>
<path d="M156.281 289.305C156.046 289.305 155.851 289.123 155.838 288.889L155.149 278.038C155.132 277.791 155.318 277.583 155.565 277.566C155.825 277.544 156.02 277.735 156.038 277.982L156.727 288.833C156.744 289.08 156.558 289.288 156.311 289.305C156.302 289.305 156.294 289.305 156.285 289.305H156.281Z" fill="url(#paint65_linear_1_34)"/>
<path d="M157.699 289.306C157.46 289.306 157.261 289.115 157.252 288.877L156.892 277.817C156.884 277.57 157.079 277.367 157.321 277.358C157.603 277.345 157.772 277.544 157.781 277.787L158.141 288.846C158.15 289.093 157.954 289.297 157.712 289.306H157.699Z" fill="url(#paint66_linear_1_34)"/>
<path d="M159.596 289.305C159.358 289.305 159.163 289.119 159.154 288.88C159.067 287.064 158.634 277.982 158.634 277.8C158.634 277.552 158.833 277.353 159.08 277.353C159.328 277.353 159.523 277.552 159.527 277.795C159.531 278.038 159.87 285.122 160.043 288.837C160.056 289.084 159.865 289.292 159.618 289.301C159.609 289.301 159.605 289.301 159.596 289.301V289.305Z" fill="url(#paint67_linear_1_34)"/>
<path d="M162.562 289.753C162.085 289.753 161.691 289.376 161.673 288.894C161.296 278.178 161.361 277.939 161.404 277.779C161.535 277.302 162.029 277.025 162.497 277.155C162.931 277.272 163.204 277.697 163.147 278.13C163.117 278.776 163.317 285.01 163.451 288.834C163.468 289.324 163.082 289.736 162.593 289.753C162.584 289.753 162.571 289.753 162.562 289.753Z" fill="url(#paint68_linear_1_34)"/>
<path d="M164.491 289.306C164.244 289.306 164.045 289.106 164.045 288.859V278.008C164.045 277.761 164.244 277.562 164.491 277.562C164.739 277.562 164.938 277.761 164.938 278.008V288.859C164.938 289.106 164.739 289.306 164.491 289.306Z" fill="url(#paint69_linear_1_34)"/>
<path d="M166.049 289.306C165.806 289.306 165.611 289.111 165.602 288.873C165.516 285.101 165.316 278.941 165.138 278.204C165.06 278.065 165.06 277.887 165.156 277.744C165.29 277.536 165.568 277.48 165.771 277.619C166.014 277.779 166.244 277.926 166.491 288.855C166.496 289.102 166.3 289.306 166.058 289.311H166.049V289.306Z" fill="url(#paint70_linear_1_34)"/>
<path d="M153.886 290.294C153.418 290.294 153.024 289.926 152.997 289.449L152.403 278.052C152.377 277.562 152.755 277.141 153.245 277.115C153.709 277.081 154.155 277.466 154.181 277.956L154.775 289.353C154.801 289.843 154.424 290.264 153.934 290.29C153.917 290.29 153.904 290.29 153.886 290.29V290.294Z" fill="url(#paint71_linear_1_34)"/>
<path d="M265.272 372.499C259.107 372.685 254.042 364.838 254.042 355.093V277.636C254.042 267.461 259.219 259.177 265.662 259.068C284.995 258.735 324.872 258.717 357.498 263.061C361.951 263.655 365.415 269.416 365.576 276.47L368.624 351.356C368.849 361.262 363.893 369.538 357.62 369.724L265.272 372.494V372.499Z" fill="url(#paint72_linear_1_34)"/>
<path d="M265.237 276.08C265.154 280.251 265.28 286.87 265.38 291.149C265.432 293.373 267.387 295.068 269.599 294.812L285.511 292.948C287.631 292.701 289.123 290.746 288.806 288.635L286.855 275.608C286.577 273.756 284.991 272.391 283.117 272.391H269.018C266.962 272.391 265.28 274.03 265.241 276.084L265.237 276.08Z" fill="white"/>
<path opacity="0.37" d="M306.821 300.769L320.093 302.2C321.948 302.399 323.535 300.869 323.396 299.005L320.496 259.529C314.933 259.351 309.444 259.225 304.15 259.134V297.795C304.15 299.326 305.303 300.605 306.821 300.769Z" fill="white"/>
<path d="M312.258 293.923C312.297 294.634 312.887 295.18 313.589 295.18C313.615 295.18 313.641 295.18 313.667 295.18C314.404 295.137 314.963 294.509 314.92 293.772L312.917 259.32C312.019 259.298 311.131 259.276 310.237 259.259L312.249 293.928L312.258 293.923Z" fill="white"/>
<path d="M272.6 288.513C272.366 288.513 272.171 288.331 272.158 288.097L271.468 277.246C271.451 276.999 271.637 276.791 271.884 276.774C272.145 276.752 272.34 276.943 272.357 277.19L273.046 288.041C273.064 288.288 272.877 288.496 272.63 288.513C272.622 288.513 272.613 288.513 272.604 288.513H272.6Z" fill="url(#paint73_linear_1_34)"/>
<path d="M274.012 288.514C273.774 288.514 273.574 288.323 273.565 288.084L273.206 277.025C273.197 276.778 273.392 276.575 273.635 276.566C273.917 276.553 274.086 276.752 274.094 276.995L274.454 288.054C274.463 288.301 274.268 288.505 274.025 288.514H274.012Z" fill="url(#paint74_linear_1_34)"/>
<path d="M275.916 288.513C275.678 288.513 275.483 288.327 275.474 288.088C275.387 286.272 274.954 277.19 274.954 277.007C274.954 276.76 275.153 276.561 275.4 276.561C275.647 276.561 275.843 276.76 275.847 277.003C275.851 277.246 276.189 284.33 276.363 288.045C276.376 288.292 276.185 288.5 275.938 288.509C275.929 288.509 275.925 288.509 275.916 288.509V288.513Z" fill="url(#paint75_linear_1_34)"/>
<path d="M278.881 288.961C278.404 288.961 278.01 288.584 277.993 288.102C277.615 277.386 277.68 277.143 277.724 276.987C277.854 276.51 278.348 276.233 278.816 276.363C279.25 276.48 279.523 276.905 279.467 277.338C279.436 277.984 279.636 284.218 279.77 288.042C279.788 288.532 279.402 288.943 278.912 288.961C278.903 288.961 278.89 288.961 278.881 288.961Z" fill="url(#paint76_linear_1_34)"/>
<path d="M280.811 288.514C280.564 288.514 280.365 288.314 280.365 288.067V277.216C280.365 276.969 280.564 276.77 280.811 276.77C281.058 276.77 281.258 276.969 281.258 277.216V288.067C281.258 288.314 281.058 288.514 280.811 288.514Z" fill="url(#paint77_linear_1_34)"/>
<path d="M282.368 288.513C282.125 288.513 281.93 288.318 281.921 288.079C281.834 284.308 281.635 278.148 281.457 277.411C281.379 277.272 281.379 277.094 281.475 276.951C281.609 276.743 281.886 276.687 282.09 276.825C282.333 276.986 282.563 277.133 282.81 288.062C282.814 288.309 282.619 288.513 282.376 288.517H282.368V288.513Z" fill="url(#paint78_linear_1_34)"/>
<path d="M270.202 289.502C269.734 289.502 269.339 289.134 269.313 288.657L268.719 277.259C268.693 276.77 269.07 276.349 269.56 276.323C270.024 276.288 270.471 276.674 270.497 277.164L271.091 288.561C271.117 289.051 270.739 289.472 270.25 289.498C270.232 289.498 270.219 289.498 270.202 289.498V289.502Z" fill="url(#paint79_linear_1_34)"/>
<path d="M29.314 375.945C23.1485 376.131 18.0843 368.241 18.0843 358.448V280.583C18.0843 270.352 23.2613 262.029 29.7042 261.916C49.0374 261.582 88.9135 261.565 121.54 265.93C125.993 266.524 129.457 272.32 129.618 279.413L132.666 354.693C132.891 364.651 127.935 372.971 121.662 373.157L29.314 375.945Z" fill="url(#paint80_linear_1_34)"/>
<path d="M29.2844 278.928C29.202 283.098 29.3278 289.718 29.4275 293.997C29.4795 296.221 31.435 297.916 33.6462 297.66L49.5585 295.796C51.6787 295.549 53.1702 293.594 52.8537 291.482L50.9026 278.455C50.6251 276.604 49.0382 275.238 47.1651 275.238H33.0652C31.0101 275.238 29.3278 276.877 29.2888 278.932L29.2844 278.928Z" fill="white"/>
<path opacity="0.37" d="M70.8647 303.617L84.1365 305.048C85.9922 305.247 87.5791 303.717 87.4403 301.853L84.5397 262.376C78.9769 262.199 73.4878 262.073 68.1938 261.982V300.643C68.1938 302.173 69.3472 303.452 70.8647 303.617Z" fill="white"/>
<path d="M76.3012 296.775C76.3403 297.486 76.9299 298.032 77.6323 298.032C77.6583 298.032 77.6843 298.032 77.7104 298.032C78.4474 297.989 79.0067 297.36 78.9634 296.624L76.9603 262.172C76.0628 262.15 75.1739 262.128 74.2808 262.111L76.2926 296.78L76.3012 296.775Z" fill="white"/>
<path d="M36.6422 291.367C36.4081 291.367 36.213 291.185 36.2 290.951L35.5106 280.1C35.4932 279.853 35.6797 279.645 35.9268 279.627C36.187 279.605 36.3821 279.796 36.3994 280.043L37.0888 290.894C37.1062 291.141 36.9197 291.35 36.6726 291.367C36.6639 291.367 36.6552 291.367 36.6466 291.367H36.6422Z" fill="url(#paint81_linear_1_34)"/>
<path d="M38.0603 291.366C37.8218 291.366 37.6224 291.175 37.6137 290.937L37.2539 279.878C37.2452 279.631 37.4403 279.427 37.6831 279.418C37.9649 279.405 38.134 279.605 38.1427 279.848L38.5026 290.907C38.5112 291.154 38.3161 291.358 38.0733 291.366H38.0603Z" fill="url(#paint82_linear_1_34)"/>
<path d="M39.9597 291.366C39.7212 291.366 39.5261 291.179 39.5175 290.941C39.4307 289.124 38.9972 280.042 38.9972 279.86C38.9972 279.613 39.1966 279.413 39.4437 279.413C39.6909 279.413 39.886 279.609 39.8903 279.856C39.8947 280.098 40.2329 287.182 40.4063 290.897C40.4193 291.144 40.2285 291.353 39.9814 291.361C39.9727 291.361 39.9684 291.361 39.9597 291.361V291.366Z" fill="url(#paint83_linear_1_34)"/>
<path d="M42.9249 291.808C42.4479 291.808 42.0534 291.431 42.036 290.95C41.6588 280.233 41.7239 279.994 41.7672 279.834C41.8973 279.357 42.3916 279.08 42.8598 279.21C43.2934 279.327 43.5666 279.752 43.5102 280.185C43.4799 280.831 43.6793 287.065 43.8137 290.889C43.8311 291.379 43.4452 291.791 42.9552 291.808C42.9466 291.808 42.9335 291.808 42.9249 291.808Z" fill="url(#paint84_linear_1_34)"/>
<path d="M44.8542 291.366C44.6071 291.366 44.4076 291.167 44.4076 290.92V280.069C44.4076 279.822 44.6071 279.622 44.8542 279.622C45.1014 279.622 45.3008 279.822 45.3008 280.069V290.92C45.3008 291.167 45.1014 291.366 44.8542 291.366Z" fill="url(#paint85_linear_1_34)"/>
<path d="M46.4111 291.366C46.1683 291.366 45.9732 291.17 45.9645 290.932C45.8778 287.16 45.6784 281 45.5006 280.263C45.4226 280.124 45.4226 279.947 45.518 279.804C45.6524 279.595 45.9299 279.539 46.1336 279.678C46.3764 279.838 46.6062 279.986 46.8534 290.915C46.8577 291.162 46.6626 291.366 46.4198 291.37H46.4111V291.366Z" fill="url(#paint86_linear_1_34)"/>
<path d="M34.2446 292.354C33.7764 292.354 33.3818 291.986 33.3558 291.509L32.7618 280.112C32.7358 279.622 33.113 279.202 33.6029 279.176C34.0669 279.141 34.5134 279.527 34.5395 280.017L35.1334 291.414C35.1595 291.904 34.7823 292.324 34.2923 292.35C34.275 292.35 34.262 292.35 34.2446 292.35V292.354Z" fill="url(#paint87_linear_1_34)"/>
<path d="M34.7048 486.606C29.3502 486.766 24.958 479.921 24.958 471.415V403.817C24.958 394.934 29.4542 387.707 35.0474 387.612C51.8311 387.321 86.4479 387.308 114.774 391.097C118.637 391.613 121.646 396.646 121.784 402.802L124.434 468.155C124.629 476.8 120.328 484.022 114.882 484.187L34.7092 486.606H34.7048Z" fill="url(#paint88_linear_1_34)"/>
<path opacity="0.37" d="M70.7734 423.809L82.2978 425.054C83.9108 425.227 85.2852 423.896 85.1681 422.279L82.649 388.005C77.819 387.853 73.054 387.741 68.4581 387.662V421.226C68.4581 422.552 69.4596 423.666 70.7777 423.809H70.7734Z" fill="white"/>
<path d="M315.476 496.702C304.328 461.613 257.472 322.991 191.03 248.365C186.287 243.037 176.384 244.854 175.686 251.911C171.658 292.875 154.809 421.253 310.147 501.298C313.139 502.837 316.482 499.884 315.471 496.698L315.476 496.702Z" fill="#489AD8"/>
<path d="M309.47 498.137C309.098 498.024 308.751 497.807 308.478 497.495C258.031 439.499 230.208 387.568 215.753 354.213C200.049 317.979 196.359 295.8 196.207 294.872C196.021 293.706 196.81 292.609 197.976 292.423C199.138 292.232 200.239 293.026 200.426 294.192C200.569 295.085 215.983 384.646 311.699 494.69C312.475 495.583 312.38 496.931 311.491 497.707C310.914 498.206 310.151 498.345 309.47 498.141V498.137Z" fill="url(#paint89_linear_1_34)"/>
<path d="M339.375 511.979C343.442 515.543 349.82 513.8 351.567 508.689C361.21 480.493 381.267 398.298 326.689 310.995C280.599 237.271 262.61 192.922 255.838 172.226C254.407 167.847 248.22 167.839 246.776 172.209C230.816 220.407 192.067 382.873 339.379 511.984L339.375 511.979Z" fill="#3D84C4"/>
<path d="M345.331 508.516C344.503 508.269 343.866 507.545 343.761 506.634C343.614 505.329 328.504 375.031 269.494 270.423C268.891 269.352 269.269 267.999 270.34 267.397C271.41 266.794 272.763 267.171 273.366 268.242C332.831 373.661 348.032 504.831 348.18 506.144C348.314 507.367 347.438 508.464 346.215 508.598C345.908 508.633 345.609 508.598 345.331 508.52V508.516Z" fill="#BDD0FB"/>
<path d="M651.186 129.429C612.48 145.773 391.131 250.095 451.723 475.365C451.723 475.365 615.13 444.195 656.098 133.158C656.458 130.435 653.713 128.363 651.186 129.429Z" fill="#1E3E68"/>
<path d="M629.832 165.828C619.396 175.647 609.411 185.9 599.625 196.347C589.852 206.804 580.348 217.512 571.104 228.441C552.643 250.316 535.222 273.098 519.353 296.946C503.505 320.793 489.154 345.712 477.499 371.927C474.59 378.478 471.837 385.106 469.327 391.826C466.812 398.541 464.449 405.321 462.402 412.205C460.351 419.081 458.465 426.017 456.957 433.04C455.435 440.063 454.19 447.143 453.263 454.274C453.176 454.95 453.653 455.575 454.333 455.661C455.01 455.748 455.634 455.271 455.721 454.591V454.578C456.605 447.52 457.811 440.505 459.289 433.543C460.755 426.577 462.597 419.692 464.605 412.86C466.608 406.023 468.923 399.282 471.395 392.597C473.857 385.908 476.572 379.31 479.438 372.781C490.923 346.657 505.118 321.765 520.823 297.917C536.548 274.069 553.839 251.257 572.18 229.343C581.363 218.392 590.806 207.662 600.523 197.18C610.248 186.71 620.185 176.419 630.544 166.595L630.552 166.586C630.76 166.387 630.773 166.053 630.574 165.845C630.374 165.633 630.045 165.624 629.832 165.823V165.828Z" fill="#BDD0FB"/>
<path d="M665.585 261.809C639.397 270.015 488.928 324.053 513.816 475.976C513.816 475.976 621.95 466.191 668.533 264.579C668.941 262.815 667.293 261.271 665.581 261.809H665.585Z" fill="#3D84C4"/>
<path d="M649.911 285.011C642.822 290.656 635.941 296.595 629.164 302.63C622.396 308.681 615.767 314.881 609.268 321.219C602.764 327.548 596.421 334.042 590.225 340.671C584.042 347.312 577.968 354.054 572.153 361.016C570.671 362.733 569.261 364.506 567.818 366.257C566.382 368.009 564.939 369.76 563.556 371.555L559.367 376.913L555.287 382.354L554.268 383.715L553.28 385.098L551.307 387.864L549.334 390.63C548.675 391.553 548.06 392.502 547.422 393.434C546.16 395.316 544.873 397.18 543.633 399.075L539.991 404.806L539.08 406.241L538.213 407.702L536.479 410.619L534.744 413.537C534.172 414.512 533.647 415.514 533.097 416.502C532.017 418.492 530.894 420.451 529.854 422.463L526.806 428.519C522.89 436.665 519.426 445.019 516.617 453.594V453.611C516.4 454.262 515.697 454.617 515.047 454.4C514.397 454.188 514.041 453.486 514.258 452.835V452.827C517.172 444.143 520.731 435.711 524.742 427.505L527.859 421.409C528.921 419.389 530.07 417.417 531.172 415.418C531.735 414.425 532.269 413.42 532.854 412.44L534.619 409.509L536.383 406.579L537.268 405.113L538.191 403.679L541.898 397.93C543.16 396.031 544.465 394.167 545.749 392.281C546.399 391.345 547.023 390.391 547.691 389.472L549.694 386.702L551.697 383.932L552.699 382.549L553.731 381.188L557.863 375.751L562.103 370.397C563.504 368.602 564.965 366.855 566.417 365.104C567.874 363.357 569.305 361.584 570.805 359.871C576.684 352.922 582.824 346.198 589.067 339.583C595.324 332.976 601.728 326.508 608.288 320.209C614.843 313.901 621.529 307.732 628.349 301.715C635.183 295.711 642.102 289.815 649.265 284.183C649.495 284.006 649.824 284.045 650.002 284.27C650.18 284.495 650.141 284.825 649.915 285.003H649.907L649.911 285.011Z" fill="#BDD0FB"/>
<path d="M549.725 178.538H314.44C307.335 178.538 301.576 184.297 301.576 191.401V584.455C301.576 591.559 307.335 597.318 314.44 597.318H549.725C556.83 597.318 562.589 591.559 562.589 584.455V191.401C562.589 184.297 556.83 178.538 549.725 178.538Z" fill="#1E3E68"/>
<path d="M540.13 196.312H324.035C319.773 196.312 316.318 199.767 316.318 204.028V571.393C316.318 575.655 319.773 579.109 324.035 579.109H540.13C544.392 579.109 547.848 575.655 547.848 571.393V204.028C547.848 199.767 544.392 196.312 540.13 196.312Z" fill="#EAE3DD"/>
<path d="M403.466 235.979L403.24 285.452C403.236 286.505 402.378 287.355 401.324 287.351L353.336 287.134C352.282 287.13 351.432 286.271 351.437 285.218V235.74C351.437 235.74 352.521 233.837 353.574 233.59L371.338 234.023H401.484C402.534 234.062 403.466 235.974 403.466 235.974V235.979Z" fill="url(#paint90_linear_1_34)"/>
<path style="mix-blend-mode:multiply" opacity="0.5" d="M403.032 285.4V285.89C403.024 286.943 402.169 287.793 401.12 287.789L353.331 287.572C352.282 287.568 351.432 286.714 351.437 285.656L351.662 235.927C351.666 234.873 352.525 234.024 353.57 234.028H353.605L353.379 283.276C353.375 284.329 354.225 285.179 355.278 285.183L403.032 285.396V285.4Z" fill="url(#paint91_linear_1_34)"/>
<path style="mix-blend-mode:multiply" opacity="0.5" d="M371.42 234.008L371.344 250.859L383.839 250.916L383.916 234.065L371.42 234.008Z" fill="url(#paint92_linear_1_34)"/>
<path opacity="0.6" d="M397.123 275.768C397.115 277.979 395.315 279.761 393.104 279.748C390.893 279.739 389.111 277.94 389.124 275.729C389.132 273.518 390.932 271.737 393.143 271.75C395.354 271.758 397.136 273.557 397.123 275.768Z" fill="#C44747"/>
<path d="M403.248 287.784C411.27 287.784 417.773 281.282 417.773 273.261C417.773 265.24 411.27 258.738 403.248 258.738C395.226 258.738 388.723 265.24 388.723 273.261C388.723 281.282 395.226 287.784 403.248 287.784Z" fill="#3D84C4"/>
<g opacity="0.8">
<path d="M400.813 280.987C400.436 280.987 400.072 280.848 399.79 280.592L394.453 275.724C393.833 275.16 393.789 274.202 394.353 273.582C394.917 272.962 395.875 272.919 396.495 273.483L400.657 277.28L410.122 265.822C410.655 265.176 411.609 265.085 412.255 265.619C412.901 266.152 412.992 267.105 412.459 267.751L401.98 280.436C401.715 280.757 401.329 280.952 400.917 280.982C400.883 280.982 400.848 280.982 400.809 280.982L400.813 280.987Z" fill="white"/>
</g>
<path d="M502.321 235.979L502.096 285.452C502.091 286.505 501.233 287.355 500.179 287.351L452.191 287.134C451.137 287.13 450.288 286.271 450.292 285.218V235.74C450.292 235.74 451.493 233.837 452.547 233.59L470.31 234.023H500.457C501.506 234.062 502.326 235.974 502.326 235.974L502.321 235.979Z" fill="url(#paint93_linear_1_34)"/>
<path style="mix-blend-mode:multiply" opacity="0.5" d="M501.888 285.4V285.89C501.879 286.943 501.025 287.793 499.976 287.789L452.187 287.572C451.137 287.568 450.288 286.714 450.292 285.656L450.517 235.927C450.522 234.873 451.38 234.024 452.425 234.028H452.893L452.672 283.276C452.668 284.329 453.509 285.179 454.554 285.183L501.888 285.396V285.4Z" fill="url(#paint94_linear_1_34)"/>
<path style="mix-blend-mode:multiply" opacity="0.5" d="M470.265 234.005L470.189 250.856L482.684 250.912L482.761 234.062L470.265 234.005Z" fill="url(#paint95_linear_1_34)"/>
<path opacity="0.6" d="M496.095 275.768C496.087 277.979 494.287 279.761 492.076 279.748C489.865 279.739 488.083 277.94 488.096 275.729C488.105 273.518 489.904 271.737 492.115 271.75C494.326 271.758 496.108 273.557 496.095 275.768Z" fill="#C44747"/>
<path d="M502.538 287.784C510.56 287.784 517.063 281.282 517.063 273.261C517.063 265.24 510.56 258.738 502.538 258.738C494.516 258.738 488.013 265.24 488.013 273.261C488.013 281.282 494.516 287.784 502.538 287.784Z" fill="#3D84C4"/>
<g opacity="0.8">
<path d="M499.785 280.987C499.408 280.987 499.044 280.848 498.762 280.592L493.425 275.724C492.805 275.16 492.761 274.202 493.325 273.582C493.889 272.962 494.847 272.919 495.467 273.483L499.629 277.28L509.094 265.822C509.628 265.176 510.581 265.085 511.227 265.619C511.874 266.152 511.965 267.105 511.431 267.751L500.952 280.436C500.687 280.757 500.301 280.952 499.889 280.982C499.855 280.982 499.82 280.982 499.781 280.982L499.785 280.987Z" fill="white"/>
</g>
<path d="M403.466 320.663L403.24 370.427C403.236 371.48 402.378 372.33 401.324 372.326L353.34 372.109C352.286 372.105 351.437 371.246 351.441 370.193V320.429C351.441 320.429 352.525 318.526 353.578 318.565L371.342 318.999H401.489C402.538 318.751 403.47 320.663 403.47 320.663H403.466Z" fill="url(#paint96_linear_1_34)"/>
<path style="mix-blend-mode:multiply" opacity="0.5" d="M403.032 369.937V370.426C403.024 371.48 402.169 372.33 401.12 372.325L353.331 372.108C352.282 372.104 351.432 371.25 351.437 370.192L351.662 320.463C351.666 319.41 352.525 318.56 353.57 318.564H353.605L353.379 367.812C353.375 368.866 354.225 369.715 355.278 369.72L403.032 369.932V369.937Z" fill="url(#paint97_linear_1_34)"/>
<path style="mix-blend-mode:multiply" opacity="0.5" d="M371.419 318.537L371.343 335.388L383.839 335.445L383.915 318.594L371.419 318.537Z" fill="url(#paint98_linear_1_34)"/>
<path opacity="0.6" d="M397.123 360.451C397.115 362.662 395.315 364.444 393.104 364.435C390.893 364.426 389.111 362.627 389.124 360.416C389.132 358.205 390.932 356.424 393.143 356.437C395.354 356.445 397.136 358.245 397.123 360.455V360.451Z" fill="#C44747"/>
<path d="M403.248 372.321C411.27 372.321 417.773 365.818 417.773 357.798C417.773 349.777 411.27 343.275 403.248 343.275C395.226 343.275 388.723 349.777 388.723 357.798C388.723 365.818 395.226 372.321 403.248 372.321Z" fill="#3D84C4"/>
<g opacity="0.8">
<path d="M400.813 365.67C400.436 365.67 400.072 365.532 399.79 365.276L394.453 360.407C393.833 359.844 393.789 358.886 394.353 358.266C394.917 357.646 395.875 357.603 396.495 358.166L400.657 361.964L410.122 350.506C410.656 349.86 411.609 349.769 412.256 350.302C412.902 350.835 412.993 351.789 412.459 352.435L401.98 365.12C401.715 365.441 401.329 365.636 400.917 365.666C400.883 365.666 400.848 365.666 400.809 365.666L400.813 365.67Z" fill="white"/>
</g>
<path d="M502.322 320.663L502.097 370.427C502.092 371.48 501.234 372.33 500.18 372.326L452.196 372.109C451.143 372.105 450.293 371.246 450.297 370.193V320.429C450.297 320.429 451.498 318.526 452.552 318.565L470.316 318.999H500.462C501.511 318.751 502.331 320.663 502.331 320.663H502.322Z" fill="url(#paint99_linear_1_34)"/>
<path style="mix-blend-mode:multiply" opacity="0.5" d="M501.888 369.937V370.426C501.879 371.48 501.025 372.33 499.976 372.325L452.187 372.108C451.137 372.104 450.288 371.25 450.292 370.192L450.517 320.463C450.522 319.41 451.38 318.56 452.425 318.564H452.893L452.672 367.812C452.668 368.866 453.509 369.715 454.554 369.72L501.888 369.932V369.937Z" fill="url(#paint100_linear_1_34)"/>
<path style="mix-blend-mode:multiply" opacity="0.5" d="M470.265 318.534L470.188 335.385L482.684 335.441L482.76 318.591L470.265 318.534Z" fill="url(#paint101_linear_1_34)"/>
<path opacity="0.6" d="M496.095 360.451C496.087 362.662 494.287 364.444 492.076 364.435C489.865 364.426 488.083 362.627 488.096 360.416C488.105 358.205 489.904 356.424 492.115 356.437C494.326 356.445 496.108 358.245 496.095 360.455V360.451Z" fill="#C44747"/>
<path d="M502.538 372.321C510.56 372.321 517.063 365.818 517.063 357.798C517.063 349.777 510.56 343.275 502.538 343.275C494.516 343.275 488.013 349.777 488.013 357.798C488.013 365.818 494.516 372.321 502.538 372.321Z" fill="#3D84C4"/>
<g opacity="0.8">
<path d="M499.786 365.67C499.408 365.67 499.044 365.532 498.762 365.276L493.425 360.407C492.805 359.844 492.762 358.886 493.325 358.266C493.889 357.646 494.847 357.603 495.467 358.166L499.629 361.964L509.094 350.506C509.628 349.86 510.582 349.769 511.228 350.302C511.874 350.835 511.965 351.789 511.431 352.435L500.952 365.12C500.687 365.441 500.301 365.636 499.89 365.666C499.855 365.666 499.82 365.666 499.781 365.666L499.786 365.67Z" fill="white"/>
</g>
<path d="M403.466 405.347L403.24 454.963C403.236 456.016 402.378 456.866 401.324 456.862L353.336 456.645C352.282 456.641 351.437 455.782 351.441 454.733V405.112C351.441 405.112 352.525 403.209 353.578 403.105L371.342 403.539H401.489C402.538 403.439 403.47 405.351 403.47 405.351L403.466 405.347Z" fill="url(#paint102_linear_1_34)"/>
<path style="mix-blend-mode:multiply" opacity="0.5" d="M403.032 454.472V454.962C403.024 456.015 402.169 456.865 401.12 456.861L353.331 456.644C352.282 456.64 351.432 455.785 351.437 454.728L351.662 404.999C351.666 403.945 352.525 403.096 353.57 403.1H353.605L353.379 452.348C353.375 453.401 354.225 454.251 355.278 454.255L403.032 454.468V454.472Z" fill="url(#paint103_linear_1_34)"/>
<path style="mix-blend-mode:multiply" opacity="0.5" d="M371.417 403.499L371.341 420.349L383.836 420.406L383.913 403.555L371.417 403.499Z" fill="url(#paint104_linear_1_34)"/>
<path opacity="0.6" d="M397.123 445.134C397.115 447.345 395.315 449.127 393.104 449.114C390.893 449.105 389.111 447.306 389.124 445.095C389.132 442.884 390.932 441.102 393.143 441.115C395.354 441.124 397.136 442.923 397.123 445.134Z" fill="#C44747"/>
<path d="M417.368 445.647C419.21 437.841 414.375 430.019 406.568 428.176C398.76 426.334 390.937 431.168 389.095 438.975C387.252 446.781 392.087 454.603 399.895 456.445C407.702 458.288 415.525 453.453 417.368 445.647Z" fill="#3D84C4"/>
<g opacity="0.8">
<path d="M400.813 450.354C400.436 450.354 400.072 450.215 399.79 449.959L394.453 445.091C393.833 444.527 393.789 443.569 394.353 442.949C394.917 442.329 395.875 442.286 396.495 442.849L400.657 446.647L410.122 435.189C410.655 434.543 411.609 434.452 412.255 434.985C412.901 435.519 412.992 436.472 412.459 437.118L401.98 449.803C401.715 450.124 401.329 450.319 400.917 450.349C400.883 450.349 400.848 450.349 400.809 450.349L400.813 450.354Z" fill="white"/>
</g>
<path d="M502.322 405.347L502.097 454.963C502.092 456.016 501.234 456.866 500.18 456.862L452.192 456.645C451.139 456.641 450.293 455.782 450.297 454.733V405.112C450.297 405.112 451.498 403.209 452.552 403.105L470.316 403.539H500.462C501.511 403.439 502.331 405.351 502.331 405.351L502.322 405.347Z" fill="url(#paint105_linear_1_34)"/>
<path style="mix-blend-mode:multiply" opacity="0.5" d="M501.888 454.472V454.962C501.879 456.015 501.025 456.865 499.976 456.861L452.187 456.644C451.137 456.64 450.288 455.785 450.292 454.728L450.517 404.999C450.522 403.945 451.38 403.096 452.425 403.1H452.893L452.672 452.348C452.668 453.401 453.509 454.251 454.554 454.255L501.888 454.468V454.472Z" fill="url(#paint106_linear_1_34)"/>
<path style="mix-blend-mode:multiply" opacity="0.5" d="M470.267 403.499L470.191 420.349L482.686 420.406L482.763 403.555L470.267 403.499Z" fill="url(#paint107_linear_1_34)"/>
<path opacity="0.6" d="M496.095 445.134C496.087 447.345 494.287 449.127 492.076 449.114C489.865 449.105 488.083 447.306 488.096 445.095C488.105 442.884 489.904 441.102 492.115 441.115C494.326 441.124 496.108 442.923 496.095 445.134Z" fill="#C44747"/>
<path d="M512.81 452.605C518.482 446.933 518.482 437.738 512.81 432.066C507.138 426.395 497.941 426.395 492.269 432.066C486.596 437.738 486.596 446.933 492.269 452.605C497.941 458.277 507.138 458.277 512.81 452.605Z" fill="#3D84C4"/>
<g opacity="0.8">
<path d="M499.785 450.354C499.408 450.354 499.044 450.215 498.762 449.959L493.425 445.091C492.805 444.527 492.761 443.569 493.325 442.949C493.889 442.329 494.847 442.286 495.467 442.849L499.629 446.647L509.094 435.189C509.628 434.543 510.581 434.452 511.227 434.985C511.874 435.519 511.965 436.472 511.431 437.118L500.952 449.803C500.687 450.124 500.301 450.319 499.889 450.349C499.855 450.349 499.82 450.349 499.781 450.349L499.785 450.354Z" fill="white"/>
</g>
<path d="M403.466 490.029L403.24 539.498C403.236 540.552 402.378 541.401 401.324 541.397L353.336 541.18C352.282 541.176 351.437 540.318 351.441 539.269V489.795C351.441 489.795 352.525 487.892 353.578 487.641L371.342 488.074H401.489C402.538 488.122 403.47 490.029 403.47 490.029H403.466Z" fill="url(#paint108_linear_1_34)"/>
<path style="mix-blend-mode:multiply" opacity="0.5" d="M403.032 539.442V539.932C403.024 540.986 402.169 541.835 401.12 541.831L353.331 541.614C352.282 541.61 351.432 540.756 351.437 539.698L351.662 489.969C351.666 488.916 352.525 488.066 353.57 488.07H353.605L353.379 537.318C353.375 538.371 354.225 539.221 355.278 539.225L403.032 539.438V539.442Z" fill="url(#paint109_linear_1_34)"/>
<path style="mix-blend-mode:multiply" opacity="0.5" d="M371.417 488.028L371.34 504.878L383.836 504.935L383.912 488.084L371.417 488.028Z" fill="url(#paint110_linear_1_34)"/>
<path opacity="0.6" d="M397.123 529.814C397.115 532.025 395.315 533.806 393.104 533.793C390.893 533.785 389.111 531.986 389.124 529.775C389.132 527.564 390.932 525.782 393.143 525.795C395.354 525.804 397.136 527.603 397.123 529.814Z" fill="#C44747"/>
<path d="M403.248 541.826C411.27 541.826 417.773 535.324 417.773 527.303C417.773 519.283 411.27 512.78 403.248 512.78C395.226 512.78 388.723 519.283 388.723 527.303C388.723 535.324 395.226 541.826 403.248 541.826Z" fill="#3D84C4"/>
<g opacity="0.8">
<path d="M400.813 535.039C400.436 535.039 400.072 534.9 399.79 534.644L394.453 529.776C393.833 529.212 393.789 528.254 394.353 527.634C394.917 527.014 395.875 526.971 396.495 527.535L400.657 531.332L410.122 519.874C410.656 519.228 411.609 519.137 412.255 519.671C412.902 520.204 412.993 521.158 412.459 521.803L401.98 534.488C401.715 534.809 401.329 535.004 400.917 535.034C400.883 535.034 400.848 535.034 400.809 535.034L400.813 535.039Z" fill="white"/>
</g>
<path d="M502.322 490.029L502.097 539.498C502.092 540.552 501.234 541.401 500.18 541.397L452.192 541.18C451.139 541.176 450.293 540.318 450.297 539.269V489.795C450.297 489.795 451.498 487.892 452.552 487.641L470.316 488.074H500.462C501.511 488.122 502.331 490.029 502.331 490.029H502.322Z" fill="url(#paint111_linear_1_34)"/>
<path style="mix-blend-mode:multiply" opacity="0.5" d="M501.888 539.442V539.932C501.879 540.986 501.025 541.835 499.976 541.831L452.187 541.614C451.137 541.61 450.288 540.756 450.292 539.698L450.517 489.969C450.522 488.916 451.38 488.066 452.425 488.07H452.893L452.672 537.318C452.668 538.371 453.509 539.221 454.554 539.225L501.888 539.438V539.442Z" fill="url(#paint112_linear_1_34)"/>
<path style="mix-blend-mode:multiply" opacity="0.5" d="M470.267 488.029L470.191 504.88L482.686 504.936L482.763 488.085L470.267 488.029Z" fill="url(#paint113_linear_1_34)"/>
<path opacity="0.6" d="M496.095 529.814C496.087 532.025 494.287 533.806 492.076 533.793C489.865 533.785 488.083 531.986 488.096 529.775C488.105 527.564 489.904 525.782 492.115 525.795C494.326 525.804 496.108 527.603 496.095 529.814Z" fill="#C44747"/>
<path d="M502.538 541.826C510.56 541.826 517.063 535.324 517.063 527.303C517.063 519.283 510.56 512.78 502.538 512.78C494.516 512.78 488.013 519.283 488.013 527.303C488.013 535.324 494.516 541.826 502.538 541.826Z" fill="#3D84C4"/>
<g opacity="0.8">
<path d="M499.785 535.039C499.408 535.039 499.044 534.9 498.762 534.644L493.425 529.776C492.805 529.212 492.761 528.254 493.325 527.634C493.889 527.014 494.847 526.971 495.467 527.535L499.629 531.332L509.094 519.874C509.628 519.228 510.581 519.137 511.227 519.671C511.874 520.204 511.965 521.158 511.431 521.803L500.952 534.488C500.687 534.809 500.301 535.004 499.889 535.034C499.855 535.034 499.82 535.034 499.781 535.034L499.785 535.039Z" fill="white"/>
</g>
<defs>
<linearGradient id="paint0_linear_1_34" x1="85.0514" y1="275.382" x2="343.434" y2="54.253" gradientUnits="userSpaceOnUse">
<stop stop-color="#D64355"/>
<stop offset="1" stop-color="#FEB3B1"/>
</linearGradient>
<linearGradient id="paint1_linear_1_34" x1="158.924" y1="163.985" x2="130.447" y2="205.368" gradientUnits="userSpaceOnUse">
<stop stop-color="#09005D"/>
<stop offset="1" stop-color="#1A0F91"/>
</linearGradient>
<linearGradient id="paint2_linear_1_34" x1="159.947" y1="164.686" x2="131.471" y2="206.073" gradientUnits="userSpaceOnUse">
<stop stop-color="#09005D"/>
<stop offset="1" stop-color="#1A0F91"/>
</linearGradient>
<linearGradient id="paint3_linear_1_34" x1="161.183" y1="165.541" x2="132.706" y2="206.924" gradientUnits="userSpaceOnUse">
<stop stop-color="#09005D"/>
<stop offset="1" stop-color="#1A0F91"/>
</linearGradient>
<linearGradient id="paint4_linear_1_34" x1="163.32" y1="167.01" x2="134.844" y2="208.393" gradientUnits="userSpaceOnUse">
<stop stop-color="#09005D"/>
<stop offset="1" stop-color="#1A0F91"/>
</linearGradient>
<linearGradient id="paint5_linear_1_34" x1="164.73" y1="167.978" x2="136.253" y2="209.365" gradientUnits="userSpaceOnUse">
<stop stop-color="#09005D"/>
<stop offset="1" stop-color="#1A0F91"/>
</linearGradient>
<linearGradient id="paint6_linear_1_34" x1="165.605" y1="168.58" x2="137.129" y2="209.967" gradientUnits="userSpaceOnUse">
<stop stop-color="#09005D"/>
<stop offset="1" stop-color="#1A0F91"/>
</linearGradient>
<linearGradient id="paint7_linear_1_34" x1="157.459" y1="162.974" x2="128.982" y2="204.361" gradientUnits="userSpaceOnUse">
<stop stop-color="#09005D"/>
<stop offset="1" stop-color="#1A0F91"/>
</linearGradient>
<linearGradient id="paint8_linear_1_34" x1="134.522" y1="333.192" x2="392.905" y2="112.063" gradientUnits="userSpaceOnUse">
<stop stop-color="#D64355"/>
<stop offset="1" stop-color="#FEB3B1"/>
</linearGradient>
<linearGradient id="paint9_linear_1_34" x1="276.012" y1="163.937" x2="247.539" y2="205.324" gradientUnits="userSpaceOnUse">
<stop stop-color="#09005D"/>
<stop offset="1" stop-color="#1A0F91"/>
</linearGradient>
<linearGradient id="paint10_linear_1_34" x1="277.04" y1="164.644" x2="248.564" y2="206.027" gradientUnits="userSpaceOnUse">
<stop stop-color="#09005D"/>
<stop offset="1" stop-color="#1A0F91"/>
</linearGradient>
<linearGradient id="paint11_linear_1_34" x1="278.276" y1="165.493" x2="249.799" y2="206.876" gradientUnits="userSpaceOnUse">
<stop stop-color="#09005D"/>
<stop offset="1" stop-color="#1A0F91"/>
</linearGradient>
<linearGradient id="paint12_linear_1_34" x1="280.413" y1="166.964" x2="251.936" y2="208.351" gradientUnits="userSpaceOnUse">
<stop stop-color="#09005D"/>
<stop offset="1" stop-color="#1A0F91"/>
</linearGradient>
<linearGradient id="paint13_linear_1_34" x1="281.822" y1="167.935" x2="253.346" y2="209.318" gradientUnits="userSpaceOnUse">
<stop stop-color="#09005D"/>
<stop offset="1" stop-color="#1A0F91"/>
</linearGradient>
<linearGradient id="paint14_linear_1_34" x1="282.694" y1="168.537" x2="254.222" y2="209.92" gradientUnits="userSpaceOnUse">
<stop stop-color="#09005D"/>
<stop offset="1" stop-color="#1A0F91"/>
</linearGradient>
<linearGradient id="paint15_linear_1_34" x1="274.547" y1="162.932" x2="246.074" y2="204.314" gradientUnits="userSpaceOnUse">
<stop stop-color="#09005D"/>
<stop offset="1" stop-color="#1A0F91"/>
</linearGradient>
<linearGradient id="paint16_linear_1_34" x1="36.4174" y1="218.56" x2="294.8" y2="-2.57303" gradientUnits="userSpaceOnUse">
<stop stop-color="#D64355"/>
<stop offset="1" stop-color="#FEB3B1"/>
</linearGradient>
<linearGradient id="paint17_linear_1_34" x1="41.4718" y1="166.04" x2="12.9953" y2="207.427" gradientUnits="userSpaceOnUse">
<stop stop-color="#09005D"/>
<stop offset="1" stop-color="#1A0F91"/>
</linearGradient>
<linearGradient id="paint18_linear_1_34" x1="42.4948" y1="166.747" x2="14.0183" y2="208.13" gradientUnits="userSpaceOnUse">
<stop stop-color="#09005D"/>
<stop offset="1" stop-color="#1A0F91"/>
</linearGradient>
<linearGradient id="paint19_linear_1_34" x1="43.7308" y1="167.596" x2="15.2543" y2="208.979" gradientUnits="userSpaceOnUse">
<stop stop-color="#09005D"/>
<stop offset="1" stop-color="#1A0F91"/>
</linearGradient>
<linearGradient id="paint20_linear_1_34" x1="45.8684" y1="169.066" x2="17.3919" y2="210.453" gradientUnits="userSpaceOnUse">
<stop stop-color="#09005D"/>
<stop offset="1" stop-color="#1A0F91"/>
</linearGradient>
<linearGradient id="paint21_linear_1_34" x1="47.2769" y1="170.036" x2="18.8003" y2="211.419" gradientUnits="userSpaceOnUse">
<stop stop-color="#09005D"/>
<stop offset="1" stop-color="#1A0F91"/>
</linearGradient>
<linearGradient id="paint22_linear_1_34" x1="48.1531" y1="170.639" x2="19.6765" y2="212.022" gradientUnits="userSpaceOnUse">
<stop stop-color="#09005D"/>
<stop offset="1" stop-color="#1A0F91"/>
</linearGradient>
<linearGradient id="paint23_linear_1_34" x1="40.0072" y1="165.035" x2="11.5307" y2="206.418" gradientUnits="userSpaceOnUse">
<stop stop-color="#09005D"/>
<stop offset="1" stop-color="#1A0F91"/>
</linearGradient>
<linearGradient id="paint24_linear_1_34" x1="18.2423" y1="99.9198" x2="343.399" y2="-112.544" gradientUnits="userSpaceOnUse">
<stop stop-color="#D64355"/>
<stop offset="1" stop-color="#FEB3B1"/>
</linearGradient>
<linearGradient id="paint25_linear_1_34" x1="35.9829" y1="52.0157" x2="7.50643" y2="93.3988" gradientUnits="userSpaceOnUse">
<stop stop-color="#09005D"/>
<stop offset="1" stop-color="#1A0F91"/>
</linearGradient>
<linearGradient id="paint26_linear_1_34" x1="37.0108" y1="52.7173" x2="8.53427" y2="94.1046" gradientUnits="userSpaceOnUse">
<stop stop-color="#09005D"/>
<stop offset="1" stop-color="#1A0F91"/>
</linearGradient>
<linearGradient id="paint27_linear_1_34" x1="38.2468" y1="53.5718" x2="9.77025" y2="94.9548" gradientUnits="userSpaceOnUse">
<stop stop-color="#09005D"/>
<stop offset="1" stop-color="#1A0F91"/>
</linearGradient>
<linearGradient id="paint28_linear_1_34" x1="40.3844" y1="55.0415" x2="11.9078" y2="96.4244" gradientUnits="userSpaceOnUse">
<stop stop-color="#09005D"/>
<stop offset="1" stop-color="#1A0F91"/>
</linearGradient>
<linearGradient id="paint29_linear_1_34" x1="41.7929" y1="56.0078" x2="13.3163" y2="97.3951" gradientUnits="userSpaceOnUse">
<stop stop-color="#09005D"/>
<stop offset="1" stop-color="#1A0F91"/>
</linearGradient>
<linearGradient id="paint30_linear_1_34" x1="42.6647" y1="56.6108" x2="14.1882" y2="97.998" gradientUnits="userSpaceOnUse">
<stop stop-color="#09005D"/>
<stop offset="1" stop-color="#1A0F91"/>
</linearGradient>
<linearGradient id="paint31_linear_1_34" x1="34.5171" y1="51.0047" x2="6.04059" y2="92.392" gradientUnits="userSpaceOnUse">
<stop stop-color="#09005D"/>
<stop offset="1" stop-color="#1A0F91"/>
</linearGradient>
<linearGradient id="paint32_linear_1_34" x1="44.6984" y1="140.41" x2="369.855" y2="-72.0547" gradientUnits="userSpaceOnUse">
<stop stop-color="#D64355"/>
<stop offset="1" stop-color="#FEB3B1"/>
</linearGradient>
<linearGradient id="paint33_linear_1_34" x1="127.771" y1="49.8306" x2="99.2943" y2="91.2136" gradientUnits="userSpaceOnUse">
<stop stop-color="#09005D"/>
<stop offset="1" stop-color="#1A0F91"/>
</linearGradient>
<linearGradient id="paint34_linear_1_34" x1="128.794" y1="50.5376" x2="100.318" y2="91.9206" gradientUnits="userSpaceOnUse">
<stop stop-color="#09005D"/>
<stop offset="1" stop-color="#1A0F91"/>
</linearGradient>
<linearGradient id="paint35_linear_1_34" x1="130.03" y1="51.3867" x2="101.554" y2="92.7697" gradientUnits="userSpaceOnUse">
<stop stop-color="#09005D"/>
<stop offset="1" stop-color="#1A0F91"/>
</linearGradient>
<linearGradient id="paint36_linear_1_34" x1="132.168" y1="52.8564" x2="103.691" y2="94.2396" gradientUnits="userSpaceOnUse">
<stop stop-color="#09005D"/>
<stop offset="1" stop-color="#1A0F91"/>
</linearGradient>
<linearGradient id="paint37_linear_1_34" x1="133.576" y1="53.827" x2="105.1" y2="95.21" gradientUnits="userSpaceOnUse">
<stop stop-color="#09005D"/>
<stop offset="1" stop-color="#1A0F91"/>
</linearGradient>
<linearGradient id="paint38_linear_1_34" x1="134.453" y1="54.4257" x2="105.976" y2="95.813" gradientUnits="userSpaceOnUse">
<stop stop-color="#09005D"/>
<stop offset="1" stop-color="#1A0F91"/>
</linearGradient>
<linearGradient id="paint39_linear_1_34" x1="126.305" y1="48.8199" x2="97.8286" y2="90.2074" gradientUnits="userSpaceOnUse">
<stop stop-color="#09005D"/>
<stop offset="1" stop-color="#1A0F91"/>
</linearGradient>
<linearGradient id="paint40_linear_1_34" x1="72.5466" y1="183.033" x2="397.704" y2="-29.4311" gradientUnits="userSpaceOnUse">
<stop stop-color="#D64355"/>
<stop offset="1" stop-color="#FEB3B1"/>
</linearGradient>
<linearGradient id="paint41_linear_1_34" x1="220.869" y1="49.8306" x2="192.393" y2="91.2132" gradientUnits="userSpaceOnUse">
<stop stop-color="#09005D"/>
<stop offset="1" stop-color="#1A0F91"/>
</linearGradient>
<linearGradient id="paint42_linear_1_34" x1="221.892" y1="50.5376" x2="193.416" y2="91.9206" gradientUnits="userSpaceOnUse">
<stop stop-color="#09005D"/>
<stop offset="1" stop-color="#1A0F91"/>
</linearGradient>
<linearGradient id="paint43_linear_1_34" x1="223.128" y1="51.3867" x2="194.651" y2="92.7697" gradientUnits="userSpaceOnUse">
<stop stop-color="#09005D"/>
<stop offset="1" stop-color="#1A0F91"/>
</linearGradient>
<linearGradient id="paint44_linear_1_34" x1="225.266" y1="52.8564" x2="196.789" y2="94.2392" gradientUnits="userSpaceOnUse">
<stop stop-color="#09005D"/>
<stop offset="1" stop-color="#1A0F91"/>
</linearGradient>
<linearGradient id="paint45_linear_1_34" x1="226.674" y1="53.827" x2="198.198" y2="95.21" gradientUnits="userSpaceOnUse">
<stop stop-color="#09005D"/>
<stop offset="1" stop-color="#1A0F91"/>
</linearGradient>
<linearGradient id="paint46_linear_1_34" x1="227.551" y1="54.4257" x2="199.074" y2="95.813" gradientUnits="userSpaceOnUse">
<stop stop-color="#09005D"/>
<stop offset="1" stop-color="#1A0F91"/>
</linearGradient>
<linearGradient id="paint47_linear_1_34" x1="219.403" y1="48.8199" x2="190.926" y2="90.2071" gradientUnits="userSpaceOnUse">
<stop stop-color="#09005D"/>
<stop offset="1" stop-color="#1A0F91"/>
</linearGradient>
<linearGradient id="paint48_linear_1_34" x1="103.058" y1="229.728" x2="428.215" y2="17.2636" gradientUnits="userSpaceOnUse">
<stop stop-color="#D64355"/>
<stop offset="1" stop-color="#FEB3B1"/>
</linearGradient>
<linearGradient id="paint49_linear_1_34" x1="314.838" y1="55.0712" x2="286.362" y2="96.4543" gradientUnits="userSpaceOnUse">
<stop stop-color="#09005D"/>
<stop offset="1" stop-color="#1A0F91"/>
</linearGradient>
<linearGradient id="paint50_linear_1_34" x1="315.861" y1="55.7739" x2="287.385" y2="97.1613" gradientUnits="userSpaceOnUse">
<stop stop-color="#09005D"/>
<stop offset="1" stop-color="#1A0F91"/>
</linearGradient>
<linearGradient id="paint51_linear_1_34" x1="317.097" y1="56.623" x2="288.62" y2="98.0103" gradientUnits="userSpaceOnUse">
<stop stop-color="#09005D"/>
<stop offset="1" stop-color="#1A0F91"/>
</linearGradient>
<linearGradient id="paint52_linear_1_34" x1="319.235" y1="58.0981" x2="290.758" y2="99.4809" gradientUnits="userSpaceOnUse">
<stop stop-color="#09005D"/>
<stop offset="1" stop-color="#1A0F91"/>
</linearGradient>
<linearGradient id="paint53_linear_1_34" x1="320.643" y1="59.0645" x2="292.167" y2="100.452" gradientUnits="userSpaceOnUse">
<stop stop-color="#09005D"/>
<stop offset="1" stop-color="#1A0F91"/>
</linearGradient>
<linearGradient id="paint54_linear_1_34" x1="321.519" y1="59.6674" x2="293.043" y2="101.05" gradientUnits="userSpaceOnUse">
<stop stop-color="#09005D"/>
<stop offset="1" stop-color="#1A0F91"/>
</linearGradient>
<linearGradient id="paint55_linear_1_34" x1="313.372" y1="54.0614" x2="284.896" y2="95.4445" gradientUnits="userSpaceOnUse">
<stop stop-color="#09005D"/>
<stop offset="1" stop-color="#1A0F91"/>
</linearGradient>
<linearGradient id="paint56_linear_1_34" x1="132.021" y1="274.046" x2="457.178" y2="61.5824" gradientUnits="userSpaceOnUse">
<stop stop-color="#D64355"/>
<stop offset="1" stop-color="#FEB3B1"/>
</linearGradient>
<linearGradient id="paint57_linear_1_34" x1="406.189" y1="58.6343" x2="377.712" y2="100.022" gradientUnits="userSpaceOnUse">
<stop stop-color="#09005D"/>
<stop offset="1" stop-color="#1A0F91"/>
</linearGradient>
<linearGradient id="paint58_linear_1_34" x1="407.213" y1="59.3413" x2="378.736" y2="100.724" gradientUnits="userSpaceOnUse">
<stop stop-color="#09005D"/>
<stop offset="1" stop-color="#1A0F91"/>
</linearGradient>
<linearGradient id="paint59_linear_1_34" x1="408.448" y1="60.1915" x2="379.972" y2="101.574" gradientUnits="userSpaceOnUse">
<stop stop-color="#09005D"/>
<stop offset="1" stop-color="#1A0F91"/>
</linearGradient>
<linearGradient id="paint60_linear_1_34" x1="410.585" y1="61.6602" x2="382.108" y2="103.047" gradientUnits="userSpaceOnUse">
<stop stop-color="#09005D"/>
<stop offset="1" stop-color="#1A0F91"/>
</linearGradient>
<linearGradient id="paint61_linear_1_34" x1="411.994" y1="62.6318" x2="383.518" y2="104.016" gradientUnits="userSpaceOnUse">
<stop stop-color="#09005D"/>
<stop offset="1" stop-color="#1A0F91"/>
</linearGradient>
<linearGradient id="paint62_linear_1_34" x1="412.87" y1="63.2348" x2="384.393" y2="104.618" gradientUnits="userSpaceOnUse">
<stop stop-color="#09005D"/>
<stop offset="1" stop-color="#1A0F91"/>
</linearGradient>
<linearGradient id="paint63_linear_1_34" x1="404.724" y1="57.6289" x2="376.247" y2="99.0117" gradientUnits="userSpaceOnUse">
<stop stop-color="#09005D"/>
<stop offset="1" stop-color="#1A0F91"/>
</linearGradient>
<linearGradient id="paint64_linear_1_34" x1="121.958" y1="419.999" x2="204.323" y2="302.072" gradientUnits="userSpaceOnUse">
<stop stop-color="#D64355"/>
<stop offset="1" stop-color="#FEB3B1"/>
</linearGradient>
<linearGradient id="paint65_linear_1_34" x1="161.319" y1="275.619" x2="132.842" y2="317.002" gradientUnits="userSpaceOnUse">
<stop stop-color="#09005D"/>
<stop offset="1" stop-color="#1A0F91"/>
</linearGradient>
<linearGradient id="paint66_linear_1_34" x1="162.342" y1="276.322" x2="133.866" y2="317.709" gradientUnits="userSpaceOnUse">
<stop stop-color="#09005D"/>
<stop offset="1" stop-color="#1A0F91"/>
</linearGradient>
<linearGradient id="paint67_linear_1_34" x1="163.577" y1="277.171" x2="135.1" y2="318.558" gradientUnits="userSpaceOnUse">
<stop stop-color="#09005D"/>
<stop offset="1" stop-color="#1A0F91"/>
</linearGradient>
<linearGradient id="paint68_linear_1_34" x1="165.714" y1="278.646" x2="137.238" y2="320.029" gradientUnits="userSpaceOnUse">
<stop stop-color="#09005D"/>
<stop offset="1" stop-color="#1A0F91"/>
</linearGradient>
<linearGradient id="paint69_linear_1_34" x1="167.123" y1="279.612" x2="138.647" y2="321" gradientUnits="userSpaceOnUse">
<stop stop-color="#09005D"/>
<stop offset="1" stop-color="#1A0F91"/>
</linearGradient>
<linearGradient id="paint70_linear_1_34" x1="168" y1="280.215" x2="139.524" y2="321.603" gradientUnits="userSpaceOnUse">
<stop stop-color="#09005D"/>
<stop offset="1" stop-color="#1A0F91"/>
</linearGradient>
<linearGradient id="paint71_linear_1_34" x1="159.852" y1="274.609" x2="131.376" y2="315.997" gradientUnits="userSpaceOnUse">
<stop stop-color="#09005D"/>
<stop offset="1" stop-color="#1A0F91"/>
</linearGradient>
<linearGradient id="paint72_linear_1_34" x1="202.26" y1="242.131" x2="469.264" y2="428.439" gradientUnits="userSpaceOnUse">
<stop stop-color="#D64355"/>
<stop offset="1" stop-color="#FEB3B1"/>
</linearGradient>
<linearGradient id="paint73_linear_1_34" x1="277.634" y1="274.827" x2="249.157" y2="316.21" gradientUnits="userSpaceOnUse">
<stop stop-color="#09005D"/>
<stop offset="1" stop-color="#1A0F91"/>
</linearGradient>
<linearGradient id="paint74_linear_1_34" x1="278.656" y1="275.53" x2="250.179" y2="316.917" gradientUnits="userSpaceOnUse">
<stop stop-color="#09005D"/>
<stop offset="1" stop-color="#1A0F91"/>
</linearGradient>
<linearGradient id="paint75_linear_1_34" x1="279.892" y1="276.383" x2="251.416" y2="317.766" gradientUnits="userSpaceOnUse">
<stop stop-color="#09005D"/>
<stop offset="1" stop-color="#1A0F91"/>
</linearGradient>
<linearGradient id="paint76_linear_1_34" x1="282.029" y1="277.854" x2="253.553" y2="319.237" gradientUnits="userSpaceOnUse">
<stop stop-color="#09005D"/>
<stop offset="1" stop-color="#1A0F91"/>
</linearGradient>
<linearGradient id="paint77_linear_1_34" x1="283.439" y1="278.82" x2="254.963" y2="320.208" gradientUnits="userSpaceOnUse">
<stop stop-color="#09005D"/>
<stop offset="1" stop-color="#1A0F91"/>
</linearGradient>
<linearGradient id="paint78_linear_1_34" x1="284.314" y1="279.422" x2="255.838" y2="320.809" gradientUnits="userSpaceOnUse">
<stop stop-color="#09005D"/>
<stop offset="1" stop-color="#1A0F91"/>
</linearGradient>
<linearGradient id="paint79_linear_1_34" x1="276.168" y1="273.817" x2="247.691" y2="315.205" gradientUnits="userSpaceOnUse">
<stop stop-color="#09005D"/>
<stop offset="1" stop-color="#1A0F91"/>
</linearGradient>
<linearGradient id="paint80_linear_1_34" x1="55.2116" y1="348.85" x2="140.177" y2="217.916" gradientUnits="userSpaceOnUse">
<stop stop-color="#D64355"/>
<stop offset="1" stop-color="#FEB3B1"/>
</linearGradient>
<linearGradient id="paint81_linear_1_34" x1="41.6761" y1="277.676" x2="13.1996" y2="319.064" gradientUnits="userSpaceOnUse">
<stop stop-color="#09005D"/>
<stop offset="1" stop-color="#1A0F91"/>
</linearGradient>
<linearGradient id="paint82_linear_1_34" x1="42.7039" y1="278.382" x2="14.2274" y2="319.765" gradientUnits="userSpaceOnUse">
<stop stop-color="#09005D"/>
<stop offset="1" stop-color="#1A0F91"/>
</linearGradient>
<linearGradient id="paint83_linear_1_34" x1="43.9399" y1="279.231" x2="15.4634" y2="320.614" gradientUnits="userSpaceOnUse">
<stop stop-color="#09005D"/>
<stop offset="1" stop-color="#1A0F91"/>
</linearGradient>
<linearGradient id="paint84_linear_1_34" x1="46.077" y1="280.701" x2="17.6005" y2="322.084" gradientUnits="userSpaceOnUse">
<stop stop-color="#09005D"/>
<stop offset="1" stop-color="#1A0F91"/>
</linearGradient>
<linearGradient id="paint85_linear_1_34" x1="47.486" y1="281.673" x2="19.0095" y2="323.056" gradientUnits="userSpaceOnUse">
<stop stop-color="#09005D"/>
<stop offset="1" stop-color="#1A0F91"/>
</linearGradient>
<linearGradient id="paint86_linear_1_34" x1="48.3579" y1="282.275" x2="19.8814" y2="323.658" gradientUnits="userSpaceOnUse">
<stop stop-color="#09005D"/>
<stop offset="1" stop-color="#1A0F91"/>
</linearGradient>
<linearGradient id="paint87_linear_1_34" x1="40.2106" y1="276.67" x2="11.7342" y2="318.053" gradientUnits="userSpaceOnUse">
<stop stop-color="#09005D"/>
<stop offset="1" stop-color="#1A0F91"/>
</linearGradient>
<linearGradient id="paint88_linear_1_34" x1="43.1813" y1="484.655" x2="116.945" y2="370.986" gradientUnits="userSpaceOnUse">
<stop stop-color="#D64355"/>
<stop offset="1" stop-color="#FEB3B1"/>
</linearGradient>
<linearGradient id="paint89_linear_1_34" x1="196.177" y1="395.31" x2="312.224" y2="395.31" gradientUnits="userSpaceOnUse">
<stop stop-color="#DAE3FE"/>
<stop offset="1" stop-color="#E9EFFD"/>
</linearGradient>
<linearGradient id="paint90_linear_1_34" x1="351.437" y1="260.472" x2="403.466" y2="260.472" gradientUnits="userSpaceOnUse">
<stop stop-color="#D64355"/>
<stop offset="1" stop-color="#FEB3B1"/>
</linearGradient>
<linearGradient id="paint91_linear_1_34" x1="379.028" y1="232.244" x2="374.425" y2="311.667" gradientUnits="userSpaceOnUse">
<stop stop-color="#FFCEA2"/>
<stop offset="1" stop-color="#A23F00"/>
</linearGradient>
<linearGradient id="paint92_linear_1_34" x1="378.712" y1="232.389" x2="375.821" y2="259.09" gradientUnits="userSpaceOnUse">
<stop stop-color="#FFCEA2"/>
<stop offset="1" stop-color="#A23F00"/>
</linearGradient>
<linearGradient id="paint93_linear_1_34" x1="479.425" y1="230.92" x2="470.544" y2="312.82" gradientUnits="userSpaceOnUse">
<stop stop-color="#D64355"/>
<stop offset="1" stop-color="#FEB3B1"/>
</linearGradient>
<linearGradient id="paint94_linear_1_34" x1="477.89" y1="232.221" x2="473.284" y2="311.683" gradientUnits="userSpaceOnUse">
<stop stop-color="#FFCEA2"/>
<stop offset="1" stop-color="#A23F00"/>
</linearGradient>
<linearGradient id="paint95_linear_1_34" x1="477.557" y1="232.391" x2="474.661" y2="259.091" gradientUnits="userSpaceOnUse">
<stop stop-color="#FFCEA2"/>
<stop offset="1" stop-color="#A23F00"/>
</linearGradient>
<linearGradient id="paint96_linear_1_34" x1="380.565" y1="315.863" x2="371.68" y2="397.807" gradientUnits="userSpaceOnUse">
<stop stop-color="#D64355"/>
<stop offset="1" stop-color="#FEB3B1"/>
</linearGradient>
<linearGradient id="paint97_linear_1_34" x1="379.019" y1="316.782" x2="374.417" y2="396.209" gradientUnits="userSpaceOnUse">
<stop stop-color="#FFCEA2"/>
<stop offset="1" stop-color="#A23F00"/>
</linearGradient>
<linearGradient id="paint98_linear_1_34" x1="378.711" y1="316.914" x2="375.816" y2="343.619" gradientUnits="userSpaceOnUse">
<stop stop-color="#FFCEA2"/>
<stop offset="1" stop-color="#A23F00"/>
</linearGradient>
<linearGradient id="paint99_linear_1_34" x1="479.418" y1="315.844" x2="470.537" y2="397.805" gradientUnits="userSpaceOnUse">
<stop stop-color="#D64355"/>
<stop offset="1" stop-color="#FEB3B1"/>
</linearGradient>
<linearGradient id="paint100_linear_1_34" x1="477.885" y1="316.763" x2="473.28" y2="396.225" gradientUnits="userSpaceOnUse">
<stop stop-color="#FFCEA2"/>
<stop offset="1" stop-color="#A23F00"/>
</linearGradient>
<linearGradient id="paint101_linear_1_34" x1="477.556" y1="316.915" x2="474.661" y2="343.62" gradientUnits="userSpaceOnUse">
<stop stop-color="#FFCEA2"/>
<stop offset="1" stop-color="#A23F00"/>
</linearGradient>
<linearGradient id="paint102_linear_1_34" x1="380.571" y1="400.43" x2="371.695" y2="482.331" gradientUnits="userSpaceOnUse">
<stop stop-color="#D64355"/>
<stop offset="1" stop-color="#FEB3B1"/>
</linearGradient>
<linearGradient id="paint103_linear_1_34" x1="379.015" y1="401.323" x2="374.413" y2="480.75" gradientUnits="userSpaceOnUse">
<stop stop-color="#FFCEA2"/>
<stop offset="1" stop-color="#A23F00"/>
</linearGradient>
<linearGradient id="paint104_linear_1_34" x1="378.705" y1="401.88" x2="375.809" y2="428.581" gradientUnits="userSpaceOnUse">
<stop stop-color="#FFCEA2"/>
<stop offset="1" stop-color="#A23F00"/>
</linearGradient>
<linearGradient id="paint105_linear_1_34" x1="479.429" y1="400.411" x2="470.548" y2="482.328" gradientUnits="userSpaceOnUse">
<stop stop-color="#D64355"/>
<stop offset="1" stop-color="#FEB3B1"/>
</linearGradient>
<linearGradient id="paint106_linear_1_34" x1="477.877" y1="401.304" x2="473.272" y2="480.766" gradientUnits="userSpaceOnUse">
<stop stop-color="#FFCEA2"/>
<stop offset="1" stop-color="#A23F00"/>
</linearGradient>
<linearGradient id="paint107_linear_1_34" x1="477.554" y1="401.88" x2="474.659" y2="428.581" gradientUnits="userSpaceOnUse">
<stop stop-color="#FFCEA2"/>
<stop offset="1" stop-color="#A23F00"/>
</linearGradient>
<linearGradient id="paint108_linear_1_34" x1="380.586" y1="484.98" x2="371.71" y2="566.858" gradientUnits="userSpaceOnUse">
<stop stop-color="#D64355"/>
<stop offset="1" stop-color="#FEB3B1"/>
</linearGradient>
<linearGradient id="paint109_linear_1_34" x1="379.009" y1="486.299" x2="374.406" y2="565.722" gradientUnits="userSpaceOnUse">
<stop stop-color="#FFCEA2"/>
<stop offset="1" stop-color="#A23F00"/>
</linearGradient>
<linearGradient id="paint110_linear_1_34" x1="378.704" y1="486.405" x2="375.809" y2="513.11" gradientUnits="userSpaceOnUse">
<stop stop-color="#FFCEA2"/>
<stop offset="1" stop-color="#A23F00"/>
</linearGradient>
<linearGradient id="paint111_linear_1_34" x1="479.439" y1="484.96" x2="470.563" y2="566.86" gradientUnits="userSpaceOnUse">
<stop stop-color="#D64355"/>
<stop offset="1" stop-color="#FEB3B1"/>
</linearGradient>
<linearGradient id="paint112_linear_1_34" x1="477.875" y1="486.281" x2="473.266" y2="565.742" gradientUnits="userSpaceOnUse">
<stop stop-color="#FFCEA2"/>
<stop offset="1" stop-color="#A23F00"/>
</linearGradient>
<linearGradient id="paint113_linear_1_34" x1="477.55" y1="486.406" x2="474.659" y2="513.111" gradientUnits="userSpaceOnUse">
<stop stop-color="#FFCEA2"/>
<stop offset="1" stop-color="#A23F00"/>
</linearGradient>
</defs>
</svg>
