<svg width="115" height="150" viewBox="0 0 115 150" fill="none" xmlns="http://www.w3.org/2000/svg">
<g clip-path="url(#clip0_1_381)">
<path d="M103.658 13.7877H2.51093C1.12401 13.7877 -0.000305176 14.9121 -0.000305176 16.299V147.488C-0.000305176 148.875 1.12401 149.999 2.51093 149.999H103.658C105.045 149.999 106.169 148.875 106.169 147.488V16.299C106.169 14.9121 105.045 13.7877 103.658 13.7877Z" fill="#489AD8"/>
<path d="M99.0072 20.9498H7.13771V142.884H99.0072V20.9498Z" fill="#AAD3EF"/>
<path d="M97.1704 22.8094H9.02132V141H97.1704V22.8094Z" fill="#F8F8F8"/>
<path fill-rule="evenodd" clip-rule="evenodd" d="M24.0191 27.297L97.1473 69.7556V22.8094H23.9958L24.0191 27.297Z" fill="#E1EFFA"/>
<path d="M17.8575 41.6198H77.8017C78.197 41.6198 78.5226 41.9454 78.5226 42.3407V45.8982C78.5226 46.2935 78.197 46.6191 77.8017 46.6191H17.8575C17.4622 46.6191 17.1367 46.2935 17.1367 45.8982V42.3174C17.1367 41.9221 17.4622 41.5966 17.8575 41.5966V41.6198Z" fill="#1E3E68"/>
<path d="M77.8017 51.315H17.8575C17.4594 51.315 17.1367 51.6377 17.1367 52.0358V55.6166C17.1367 56.0147 17.4594 56.3374 17.8575 56.3374H77.8017C78.1998 56.3374 78.5225 56.0147 78.5225 55.6166V52.0358C78.5225 51.6377 78.1998 51.315 77.8017 51.315Z" fill="#1E3E68"/>
<path d="M77.8017 61.0367H17.8575C17.4594 61.0367 17.1367 61.3594 17.1367 61.7575V65.3384C17.1367 65.7365 17.4594 66.0592 17.8575 66.0592H77.8017C78.1998 66.0592 78.5225 65.7365 78.5225 65.3384V61.7575C78.5225 61.3594 78.1998 61.0367 77.8017 61.0367Z" fill="#1E3E68"/>
<path d="M17.8575 70.7552H77.8017C78.197 70.7552 78.5225 71.0807 78.5225 71.476V75.0568C78.5225 75.4521 78.197 75.7777 77.8017 75.7777H17.8575C17.4622 75.7777 17.1367 75.4521 17.1367 75.0568V71.476C17.1367 71.0807 17.4622 70.7552 17.8575 70.7552Z" fill="#1E3E68"/>
<path d="M77.8017 80.4736H17.8575C17.4594 80.4736 17.1367 80.7963 17.1367 81.1944V84.7753C17.1367 85.1734 17.4594 85.4961 17.8575 85.4961H77.8017C78.1998 85.4961 78.5225 85.1734 78.5225 84.7753V81.1944C78.5225 80.7963 78.1998 80.4736 77.8017 80.4736Z" fill="#1E3E68"/>
<path d="M84.6143 41.6196H88.3114C88.7067 41.6196 89.0323 41.9451 89.0323 42.3404V45.898C89.0323 46.2933 88.7067 46.6188 88.3114 46.6188H84.6143C84.219 46.6188 83.8935 46.2933 83.8935 45.898V42.3172C83.8935 41.9219 84.219 41.5964 84.6143 41.5964V41.6196Z" fill="#1E3E68"/>
<path d="M88.3114 51.3149H84.6143C84.2162 51.3149 83.8934 51.6376 83.8934 52.0357V55.6165C83.8934 56.0146 84.2162 56.3374 84.6143 56.3374H88.3114C88.7095 56.3374 89.0322 56.0146 89.0322 55.6165V52.0357C89.0322 51.6376 88.7095 51.3149 88.3114 51.3149Z" fill="#1E3E68"/>
<path d="M88.3114 61.0367H84.6143C84.2162 61.0367 83.8934 61.3594 83.8934 61.7575V65.3383C83.8934 65.7364 84.2162 66.0591 84.6143 66.0591H88.3114C88.7095 66.0591 89.0322 65.7364 89.0322 65.3383V61.7575C89.0322 61.3594 88.7095 61.0367 88.3114 61.0367Z" fill="#1E3E68"/>
<path d="M84.6152 70.7551H88.289C88.6843 70.7551 89.0098 71.0806 89.0098 71.4759V75.0568C89.0098 75.452 88.6843 75.7776 88.289 75.7776H84.5919C84.1966 75.7776 83.8711 75.452 83.8711 75.0568V71.4759C83.8711 71.0806 84.1966 70.7551 84.5919 70.7551H84.6152Z" fill="#1E3E68"/>
<path d="M88.3114 80.4735H84.6143C84.2162 80.4735 83.8934 80.7963 83.8934 81.1944V84.7752C83.8934 85.1733 84.2162 85.496 84.6143 85.496H88.3114C88.7095 85.496 89.0322 85.1733 89.0322 84.7752V81.1944C89.0322 80.7963 88.7095 80.4735 88.3114 80.4735Z" fill="#1E3E68"/>
<path fill-rule="evenodd" clip-rule="evenodd" d="M61.9439 121.027C69.6869 134.443 86.847 139.047 100.264 131.304C113.68 123.561 118.284 106.401 110.541 92.9848C102.798 79.5683 85.6379 74.9643 72.2214 82.7073C58.8048 90.4503 54.2009 107.61 61.9439 121.027Z" fill="#FFE6E7"/>
<path fill-rule="evenodd" clip-rule="evenodd" d="M66.873 107.099C65.4314 105.495 65.5709 103.007 67.1753 101.565C68.7797 100.123 71.2677 100.263 72.7093 101.867L84.5447 110.494L101.31 96.2403C102.751 94.6359 105.239 94.4964 106.844 95.938C108.448 97.3797 108.587 99.8677 107.146 101.472C100.589 108.843 94.0316 116.214 87.4745 123.585C86.7304 124.422 85.7073 124.864 84.6842 124.887H84.5912H84.4982H84.4052C83.3821 124.841 82.359 124.422 81.6149 123.585L66.873 107.122V107.099Z" fill="#D64355"/>
<path fill-rule="evenodd" clip-rule="evenodd" d="M24.0189 9.41721H81.2193C82.5447 9.41721 83.6143 10.4868 83.6143 11.8122V13.7886C82.4285 13.7886 81.4751 15.8116 81.4751 18.2763C81.4751 20.741 82.4285 22.764 83.6143 22.764V24.8567C83.6143 26.182 82.5215 27.2516 81.2193 27.2516H24.0189C22.6935 27.2516 21.6239 26.1588 21.6239 24.8567V22.764C22.8098 22.764 23.7631 20.741 23.7631 18.2763C23.7631 15.8116 22.8098 13.7886 21.6239 13.7886V11.8122C21.6239 10.4868 22.7168 9.41721 24.0189 9.41721Z" fill="#1E3E68"/>
<path fill-rule="evenodd" clip-rule="evenodd" d="M27.5302 13.9061C28.158 15.3245 28.4371 16.8824 28.4371 18.3007C28.4371 19.7191 28.1348 21.37 27.4837 22.8117H77.755C77.1039 21.37 76.8017 19.7656 76.8017 18.3007C76.8017 16.8359 77.0807 15.3245 77.7085 13.9061H27.5302Z" fill="#1E3E68"/>
<path fill-rule="evenodd" clip-rule="evenodd" d="M28.2981 14.4167C28.7399 15.6491 28.9724 16.9977 28.9724 18.2766C28.9724 19.5555 28.7167 21.5086 28.0424 22.7875H77.7556C77.1045 21.3459 76.8022 19.7415 76.8022 18.2766C76.8022 17.0442 77.0115 15.6723 77.4998 14.4167H28.2981Z" fill="#F8F8F8"/>
<path fill-rule="evenodd" clip-rule="evenodd" d="M40.1332 9.41714C40.9005 9.41714 41.5051 8.78934 41.5051 8.04526V1.37188C41.5051 0.604557 42.1329 0 42.8769 0H62.3158C63.0831 0 63.6877 0.62781 63.6877 1.37188V8.04526C63.6877 8.81259 64.3155 9.41714 65.0595 9.41714H40.1099H40.1332ZM47.0856 3.23206C46.2718 3.23206 45.5974 3.90637 45.5974 4.7202C45.5974 5.53403 46.2718 6.20834 47.0856 6.20834H58.1769C58.9907 6.20834 59.665 5.53403 59.665 4.7202C59.665 3.90637 58.9907 3.23206 58.1769 3.23206H47.0856Z" fill="#1E3E68"/>
</g>
<defs>
<clipPath id="clip0_1_381">
<rect width="114.308" height="150" fill="white"/>
</clipPath>
</defs>
</svg>
