<svg width="236" height="218" viewBox="0 0 236 218" fill="none" xmlns="http://www.w3.org/2000/svg">
<path d="M105.014 181.517C105.014 181.517 51.1766 182.033 35 147.816C35 147.816 71.7111 140.973 90.3769 153.104C90.3769 153.104 56.1551 140.039 39.9768 108.623C39.9768 108.623 74.1986 102.723 99.0875 129.624C99.0875 129.624 72.954 111.521 62.0653 79.2771C62.0653 79.2771 87.5765 86.8492 98.1541 104.269C98.1541 104.269 91.6216 95.657 91.6216 79.2771C91.6216 79.2771 100.983 86.9588 105.014 94.2144V181.518V181.517Z" fill="#489AD8"/>
<mask id="mask0_1_336" style="mask-type:luminance" maskUnits="userSpaceOnUse" x="35" y="79" width="71" height="103">
<path d="M105.014 181.516C105.014 181.516 51.1767 182.032 35.0001 147.816C35.0001 147.816 71.7112 140.972 90.377 153.103C90.377 153.103 56.1552 140.038 39.9768 108.622C39.9768 108.622 74.1987 102.723 99.0876 129.624C99.0876 129.624 72.954 111.52 62.0653 79.2764C62.0653 79.2764 87.5766 86.8485 98.1541 104.268C98.1541 104.268 91.6216 95.6563 91.6216 79.2764C91.6216 79.2764 100.983 86.9581 105.014 94.2137V181.518V181.516Z" fill="white"/>
</mask>
<g mask="url(#mask0_1_336)">
<path d="M102.031 82.1102C102.031 82.1102 97.2899 159.104 80.8287 181.517L115.211 185.28L110.892 83.6094L102.03 82.1119" fill="#1E3E68"/>
<path d="M107.616 171.482C87.9111 162.663 35.1896 148.794 34.6964 147.731C34.7423 147.562 34.9174 147.464 35.0853 147.512C35.0853 148.101 90.8724 162.048 107.616 171.482Z" fill="#1E3E68"/>
<path d="M110.894 148.762C93.6977 136.701 52.0559 115.467 39.6945 108.482C39.6627 107.981 87.2077 131.134 110.894 148.762Z" fill="#1E3E68"/>
<path d="M108.587 127.599C102.939 115.636 61.9175 80.1816 61.8291 79.0696C65.9837 81.0603 110.935 123.804 108.587 127.599Z" fill="#1E3E68"/>
<path d="M110.894 111.093C110.548 110.778 90.9133 79.5692 91.456 79.0087C92.195 78.4783 110.737 110.503 111.163 110.614C111.292 110.814 111.133 111.102 110.893 111.093H110.894Z" fill="#1E3E68"/>
</g>
<path d="M108.187 181.989L181.135 181.967C183.994 181.967 185.965 179.68 185.539 176.858L165.02 41.1057C164.594 38.2858 161.932 35.9999 159.073 35.9999L86.1246 36.0211C83.2658 36.0211 81.2946 38.3088 81.7207 41.1304L102.239 176.883C102.665 179.703 105.328 181.989 108.187 181.989Z" fill="#38385C"/>
<path d="M178.179 171.235L107.896 171.254L89.0784 46.7546L159.361 46.7334L178.179 171.235Z" fill="#F2EDE9"/>
<mask id="mask1_1_336" style="mask-type:luminance" maskUnits="userSpaceOnUse" x="89" y="46" width="90" height="126">
<path d="M178.178 171.236L107.896 171.256L89.0781 46.7564L159.36 46.7352L178.178 171.236Z" fill="white"/>
</mask>
<g mask="url(#mask1_1_336)">
<path d="M159.36 46.7328L96.1781 51.6335L116.96 171.966L105.896 171.253L86.7551 44.3302L159.36 46.7328Z" fill="#489AD8"/>
<path opacity="0.2" d="M175.267 92.601L101.079 170.889L104.578 194.034L178.178 115.934L175.267 92.601Z" fill="#E9D7C6"/>
<path opacity="0.2" d="M197.23 118.022L123.042 196.311L126.541 219.455L200.142 141.357L197.23 118.022Z" fill="#E9D7C6"/>
<path opacity="0.2" d="M170.104 51.192L95.9166 129.481L99.4153 152.625L173.014 74.5269L170.104 51.192Z" fill="#E9D7C6"/>
<path opacity="0.2" d="M158.68 15.5455L84.4939 93.8348L87.9908 116.979L161.592 38.8804L158.68 15.5455Z" fill="#E9D7C6"/>
</g>
<path d="M129.864 43.1312L116.569 43.1347C115.931 43.1347 115.335 42.6238 115.239 41.9926C115.144 41.3615 115.584 40.8505 116.224 40.8505L129.519 40.847C130.157 40.847 130.753 41.3579 130.848 41.9891C130.944 42.6202 130.504 43.1312 129.864 43.1312Z" fill="#E9D7C6"/>
<path d="M155.64 140.841C156.497 144.308 120.539 144 121.246 140.85C120.389 137.383 156.347 137.691 155.64 140.841Z" fill="#E9D7C6"/>
<path d="M149.148 113.559C147.926 105.477 140.298 98.9271 132.107 98.9307C113.441 100.273 114.583 123.989 138.472 141.036C152.988 128.885 149.148 113.559 149.148 113.559Z" fill="#D64355"/>
<path d="M139.248 112.351C139.971 120.073 129.075 118.845 128.276 112.355C127.553 104.632 138.449 105.861 139.248 112.351Z" fill="#38385C"/>
</svg>
